<svg xmlns="http://www.w3.org/2000/svg" width="152" height="152" fill="none"><g clip-path="url(#a)"><path fill="#141414" d="M76 152.16c42.062 0 76.16-34.098 76.16-76.16S118.062-.16 76-.16-.16 33.938-.16 76 33.938 152.16 76 152.16Z" style="fill:#141414;fill:color(display-p3 .0784 .0784 .0784);fill-opacity:1"/><path fill="#fff" d="M96.501 87.92h-41v23.671l20.5 11.836 20.5-11.836V87.92Z" style="fill:#fff;fill-opacity:1"/><path fill="#383838" d="m76 123.427 20.5-11.836V87.92H76v35.507Z" style="fill:#383838;fill:color(display-p3 .2196 .2196 .2196);fill-opacity:1"/><path fill="url(#b)" d="m76 123.427 20.5-11.836V87.92H76v35.507Z"/><path fill="#8FFFE2" d="m76.001 76.085-20.5 11.835 20.5 11.836 20.5-11.836-20.5-11.835Z" style="fill:#8fffe2;fill:color(display-p3 .5608 1 .8863);fill-opacity:1"/><path fill="#DFDFDF" d="m76.001 28.742-20.5 11.836 20.5 11.836 20.5-11.836-20.5-11.836Z" style="fill:#dfdfdf;fill:color(display-p3 .8745 .8745 .8745);fill-opacity:1"/><path fill="url(#c)" fill-opacity=".2" d="m76.001 28.742-20.5 11.836 20.5 11.836 20.5-11.836-20.5-11.836Z"/><path fill="#1A1A1A" d="m76 76.085 41-23.67v47.342l-20.5 11.834v-23.67L76 99.757V76.085Z" style="fill:#1a1a1a;fill:color(display-p3 .102 .102 .102);fill-opacity:1"/><path fill="#DFDFDF" d="m76 76.085-41-23.67v47.342l20.5 11.835v-23.67L76 99.756V76.085Z" style="fill:#dfdfdf;fill:color(display-p3 .8745 .8745 .8745);fill-opacity:1"/><path fill="url(#d)" fill-opacity=".2" d="m76 76.085-41-23.67v47.342l20.5 11.835v-23.67L76 99.756V76.085Z"/><path fill="#fff" d="M55.5 40.577 35 52.413l41 23.671 41-23.671-20.5-11.836L76 52.413 55.5 40.577Z" style="fill:#fff;fill-opacity:1"/></g><defs><linearGradient id="b" x1="76" x2="222.271" y1="28.742" y2="190.654" gradientUnits="userSpaceOnUse"><stop stop-color="#000001" stop-opacity="0" style="stop-color:none;stop-opacity:0"/><stop offset="1" stop-color="#000001" style="stop-color:#000001;stop-color:color(display-p3 0 0 .0039);stop-opacity:1"/></linearGradient><linearGradient id="c" x1="75.999" x2="152.15" y1="28.742" y2="66.817" gradientUnits="userSpaceOnUse"><stop stop-opacity="0" style="stop-color:none;stop-opacity:0"/><stop offset="1" style="stop-color:black;stop-opacity:1"/></linearGradient><linearGradient id="d" x1="52.776" x2="101.135" y1="54.633" y2="126.145" gradientUnits="userSpaceOnUse"><stop stop-opacity="0" style="stop-color:none;stop-opacity:0"/><stop offset="1" style="stop-color:black;stop-opacity:1"/></linearGradient><clipPath id="a"><path fill="#fff" d="M0 0h152v152H0z" style="fill:#fff;fill-opacity:1"/></clipPath></defs></svg>