<svg xmlns="http://www.w3.org/2000/svg" width="32" height="32" fill="none"><g clip-path="url(#a)"><path fill="#06070A" d="M16 32c8.837 0 16-7.163 16-16S24.837 0 16 0 0 7.163 0 16s7.163 16 16 16Z"/><g clip-path="url(#b)"><path fill="#fff" fill-rule="evenodd" d="M16.851 28H16C9.373 28 4 22.627 4 16S9.373 4 16 4s12 5.373 12 12c0 .593-.043 1.177-.127 1.748h-1.68c.097-.568.148-1.152.148-1.748 0-5.711-4.63-10.34-10.341-10.34-5.711 0-10.34 4.629-10.34 10.34S10.288 26.34 16 26.34h6.15A11.957 11.957 0 0 1 16.851 28Zm7.598-3.437H16a8.563 8.563 0 1 1 8.384-6.815h-1.703A6.904 6.904 0 1 0 16 22.903h9.852a12.1 12.1 0 0 1-1.404 1.66ZM16 21.126h10.886a11.98 11.98 0 0 0 .637-1.66H16a3.467 3.467 0 1 1 2.994-1.718h1.826A5.126 5.126 0 1 0 16 21.126Z" clip-rule="evenodd"/></g></g><defs><clipPath id="a"><path fill="#fff" d="M0 0h32v32H0z"/></clipPath><clipPath id="b"><path fill="#fff" d="M4 4h24v24H4z"/></clipPath></defs></svg>