<svg xmlns="http://www.w3.org/2000/svg" width="32" height="32" fill="none"><g clip-path="url(#a)"><path fill="#002855" d="M16 32c8.837 0 16-7.163 16-16S24.837 0 16 0 0 7.163 0 16s7.163 16 16 16Z"/><path fill="#fff" d="M13.3 25.28H9.36a.32.32 0 0 1-.276-.483l.852-1.448a1.6 1.6 0 0 1 1.38-.79h1.017a1.6 1.6 0 0 0 1.403-.83L20.985 8.51a1.6 1.6 0 0 1 1.402-.83h1.874a.32.32 0 0 1 .28.473L23.84 9.44l-7.73 14.172a3.2 3.2 0 0 1-2.81 1.668Z"/><path fill="#fff" d="M11.343 7.68H9.504a.32.32 0 0 0-.28.475l5.148 9.263a.32.32 0 0 0 .559 0l.954-1.709a1.6 1.6 0 0 0 .001-1.558L12.741 8.5a1.6 1.6 0 0 0-1.398-.821Z" opacity=".7"/></g><defs><clipPath id="a"><path fill="#fff" d="M0 0h32v32H0z"/></clipPath></defs></svg>