<svg xmlns="http://www.w3.org/2000/svg" width="25" height="25" fill="none"><circle cx="12.141" cy="12.27" r="12" fill="#fff"/><path fill="#50AF95" fill-rule="evenodd" d="M5.622 4.64 1.87 12.186a.14.14 0 0 0 .033.17l10.13 9.3a.158.158 0 0 0 .214 0l10.13-9.299a.14.14 0 0 0 .033-.17L18.66 4.64a.147.147 0 0 0-.056-.062.156.156 0 0 0-.082-.023H5.762a.156.156 0 0 0-.084.023.147.147 0 0 0-.056.061Zm7.82 8.322c-.072.005-.448.027-1.286.027-.667 0-1.14-.02-1.306-.027-2.577-.108-4.5-.538-4.5-1.053 0-.514 1.923-.943 4.5-1.053v1.678c.168.012.65.039 1.317.039.8 0 1.201-.032 1.273-.038v-1.678c2.571.11 4.49.54 4.49 1.052 0 .514-1.918.943-4.49 1.052l.003.001Zm0-2.279V9.181h3.588v-2.29H7.262v2.29h3.587v1.502c-2.916.128-5.108.681-5.108 1.344s2.192 1.216 5.108 1.345v4.813h2.593V13.37c2.909-.128 5.098-.68 5.098-1.343 0-.663-2.187-1.215-5.098-1.344Z" clip-rule="evenodd"/></svg>