<svg xmlns="http://www.w3.org/2000/svg" width="25" height="25" fill="none"><g clip-path="url(#a)"><path fill="#2775CA" fill-rule="evenodd" d="M24.14 12.27c0 6.65-5.35 12-12 12s-12-5.35-12-12 5.35-12 12-12 12 5.35 12 12Zm-19-2.45c-1.45 3.85.55 8.2 4.45 9.6.15.1.3.3.3.45v.7c0 .1 0 .15-.05.2-.05.2-.25.3-.45.2-2.8-.9-4.95-3.05-5.85-5.85-1.5-4.75 1.1-9.8 5.85-11.3.05-.05.15-.05.2-.05.2.05.3.2.3.4v.7c0 .25-.1.4-.3.5-2.05.75-3.7 2.35-4.45 4.45Zm9.3-5.8c.05-.2.25-.3.45-.2 2.75.9 4.95 3.05 5.85 5.9 1.5 4.75-1.1 9.8-5.85 11.3-.05.05-.15.05-.2.05-.2-.05-.3-.2-.3-.4v-.7c0-.25.1-.4.3-.5 2.05-.75 3.7-2.35 4.45-4.45 1.45-3.85-.55-8.2-4.45-9.6-.15-.1-.3-.3-.3-.5v-.7c0-.1 0-.15.05-.2Zm-2.15 7.55c2.1.25 3.15.85 3.15 2.6 0 1.35-1 2.4-2.5 2.65v1.2c-.05.25-.2.4-.4.4h-.75c-.25-.05-.4-.2-.4-.4v-1.2c-1.65-.25-2.45-1.15-2.65-2.4v-.05c0-.2.15-.35.35-.35h.85c.15 0 .3.1.35.3.15.75.6 1.3 1.9 1.3.95 0 1.65-.55 1.65-1.35s-.45-1.1-1.85-1.35c-2.1-.25-3.1-.9-3.1-2.55 0-1.25.95-2.25 2.45-2.45V6.77c.05-.25.2-.4.4-.4h.75c.25.05.4.2.4.4v1.2c1.15.1 2.05.95 2.25 2.05v.05c0 .2-.15.35-.35.35h-.8c-.15 0-.3-.1-.35-.25-.25-.75-.75-1.05-1.65-1.05-1 0-1.5.45-1.5 1.15s.3 1.1 1.8 1.3Z" clip-rule="evenodd"/><path fill="#fff" d="M9.59 19.42c-3.9-1.4-5.9-5.75-4.45-9.6.75-2.1 2.4-3.7 4.45-4.45.2-.1.3-.25.3-.5v-.7c0-.2-.1-.35-.3-.4-.05 0-.15 0-.2.05-4.75 1.5-7.35 6.55-5.85 11.3.9 2.8 3.05 4.95 5.85 5.85.2.1.4 0 .45-.2.05-.05.05-.1.05-.2v-.7c0-.15-.15-.35-.3-.45Z"/><path fill="#fff" d="M15.44 14.17c0-1.75-1.05-2.35-3.15-2.6-1.5-.2-1.8-.6-1.8-1.3 0-.7.5-1.15 1.5-1.15.9 0 1.4.3 1.65 1.05.05.15.2.25.35.25h.8c.2 0 .35-.15.35-.35v-.05c-.2-1.1-1.1-1.95-2.25-2.05v-1.2c0-.2-.15-.35-.4-.4h-.75c-.2 0-.35.15-.4.4v1.15c-1.5.2-2.45 1.2-2.45 2.45 0 1.65 1 2.3 3.1 2.55 1.4.25 1.85.55 1.85 1.35s-.7 1.35-1.65 1.35c-1.3 0-1.75-.55-1.9-1.3-.05-.2-.2-.3-.35-.3h-.85c-.2 0-.35.15-.35.35v.05c.2 1.25 1 2.15 2.65 2.4v1.2c0 .2.15.35.4.4h.75c.2 0 .35-.15.4-.4v-1.2c1.5-.25 2.5-1.3 2.5-2.65Z"/><path fill="#fff" d="M14.89 3.82c-.2-.1-.4 0-.45.2-.05.05-.05.1-.05.2v.7c0 .2.15.4.3.5 3.9 1.4 5.9 5.75 4.45 9.6-.75 2.1-2.4 3.7-4.45 4.45-.2.1-.3.25-.3.5v.7c0 .2.1.35.3.4.05 0 .15 0 .2-.05 4.75-1.5 7.35-6.55 5.85-11.3-.9-2.85-3.1-5-5.85-5.9Z"/></g><defs><clipPath id="a"><path fill="#fff" d="M.14.27h24v24h-24z"/></clipPath></defs></svg>