<svg xmlns="http://www.w3.org/2000/svg" width="128" height="127" fill="none"><path fill="#CECECE" stroke="#000" stroke-linecap="round" stroke-linejoin="round" stroke-width=".486" d="m87.486 105.695-7.85-22.63c-.34-.947-1.362-1.458-2.31-1.117-.948.34-1.458 1.36-1.118 2.309l7.851 22.629a1.826 1.826 0 0 0 1.726 1.215c.753 0 .389-.024.608-.097.948-.341 1.458-1.361 1.118-2.309h-.025ZM51.78 61.918a1.7 1.7 0 0 1-.68-.146L25.092 51.223a1.825 1.825 0 0 1-.997-2.382 1.805 1.805 0 0 1 2.382-.996l26.008 10.549a1.825 1.825 0 0 1 .997 2.382 1.844 1.844 0 0 1-1.702 1.142Zm30.213-11.304c-.34 0-.68-.097-.996-.316a1.705 1.705 0 0 1-.39-2.382l16.067-22.531a1.707 1.707 0 0 1 2.772 1.993L83.378 49.91c-.34.461-.85.704-1.386.704Z" style="fill:#cecece;fill:color(display-p3 .8078 .8078 .8078);fill-opacity:1;stroke:#000;stroke-opacity:1"/><path fill="#01E656" stroke="#000" stroke-linecap="round" stroke-linejoin="round" stroke-width=".486" d="M119.619 21.424C119.619 11.24 111.355 3 101.195 3s-18.424 8.264-18.424 18.424 8.264 18.424 18.424 18.424 18.424-8.264 18.424-18.424Z" style="fill:#01e656;fill:color(display-p3 .0039 .902 .3373);fill-opacity:1;stroke:#000;stroke-opacity:1"/><path fill="#fff" stroke="#000" stroke-miterlimit="10" stroke-width=".486" d="M104.889 20.622c-.802-.34-1.653-.461-2.503-.632-.973-.17-1.994-.17-2.893-.631a.848.848 0 0 1-.437-.924c.145-.632.583-.972 1.166-1.143a3.758 3.758 0 0 1 1.945-.073c.948.17 1.531.608 1.677 1.58 0 .146.097.146.219.146h2.041c.195 0 .244-.073.219-.243-.048-.34-.097-1.701-1.41-2.722-.632-.51-1.385-.754-2.187-.875-.219-.024-.292-.097-.267-.316l.145-1.361s.122-.219-.559-.219h-1.337c-.194 0-.243.049-.218.243.048.462.073.9.121 1.361 0 .17 0 .268-.194.268-1.993.072-2.82 1.118-3.16 1.628-.438.632-.68 1.483-.705 1.847-.049.827.122 1.556.73 2.164.413.413.923.704 1.482.875.754.218 3.208.583 4.156.753 1.143.195 1.483.632 1.216 1.531-.219.56-.657.875-1.216 1.046-.461.145-1.92.243-2.649 0-.656-.22-1.24-.584-1.361-1.337-.049-.34-.17-.462-.486-.413h-1.872c-.097.024-.146.097-.146.194.073.705.51 3.451 3.695 3.743.583.049.559.097.535.632-.025.34-.049.68-.098 1.045 0 .146.073.243.219.243h1.191c.681 0 .681.049.632-.413l-.097-.948c0-.437 0-.486.34-.51.049 0 .754-.146.899-.17 1.605-.438 2.747-1.313 2.99-3.087.267-2.115-.851-2.844-1.799-3.233l-.024-.049Z" style="fill:#fff;fill-opacity:1;stroke:#000;stroke-opacity:1"/><path fill="#fff" stroke="#000" stroke-linecap="round" stroke-linejoin="round" stroke-width=".486" d="M90.816 21.448c0-6.83 5.663-12.348 12.663-12.348s4.375.583 6.222 1.58a24.778 24.778 0 0 1-.291-.754c-1.07-2.698-3.573-4.715-6.563-4.715-9.188 0-16.65 7.268-16.65 16.236 0 8.97 7.462 16.237 16.65 16.237 9.188 0 5.493-2.017 6.563-4.715.097-.243.194-.486.291-.754-1.847 1.021-3.962 1.58-6.222 1.58-7 0-12.663-5.542-12.663-12.348Z" style="fill:#fff;fill-opacity:1;stroke:#000;stroke-opacity:1"/><path fill="#fff" stroke="#000" stroke-linecap="round" stroke-linejoin="round" stroke-width=".486" d="M109.701 10.68c1.24 3.354 1.896 7 1.896 10.767a31.65 31.65 0 0 1-1.896 10.768c3.841-2.115 6.441-6.15 6.441-10.768s-2.6-8.653-6.441-10.767Z" style="fill:#fff;fill-opacity:1;stroke:#000;stroke-opacity:1"/><path fill="#008F2D" stroke="#000" stroke-linecap="round" stroke-miterlimit="10" stroke-width=".486" d="M114.515 27.574c.851.048 2.99-.51 3.937-2.042.997-1.58.657-3.646-.218-5.81-.875-2.163-3.014-4.642-3.014-4.642s-1.507-2.017-4.91-4.545c-3.427-2.528-5.955-3.646-5.955-3.646-2.236-1.167-8.24-3.208-11.205-1.58-3.16 1.75-2.31 4.91-2.31 4.91s.948-.972 1.848-1.628c1.555-1.119 2.382-1.459 2.382-1.459s3.184-.316 7.316 1.726c3.281 1.604 5.08 2.99 5.712 3.5.681.535 3.354 2.503 5.274 5.056 1.726 2.284 2.528 4.059 2.674 5.444 0 0-.048 1.143-.559 2.552a15.468 15.468 0 0 1-.972 2.188v-.024Zm-4.814 4.642s2.504 2.553.973 4.4c-1.921 2.333-8.58 1.07-11.133 0-7.219-3.038-11.18-6.879-11.18-6.879s-5.713-5.76-4.935-9.698c.438-2.236 2.577-2.236 3.233-2.236 0 0-.486 2.114-.413 3.889.048 1.385 1.799 3.378 3.719 5.493 1.968 2.139 4.715 4.108 5.541 4.594.827.486 1.459 1.118 6.174 2.746 4.497 1.556 6.271.827 6.271.827s1.24-1.604 1.775-3.136h-.025Z" style="fill:#008f2d;fill:color(display-p3 0 .5608 .1765);fill-opacity:1;stroke:#000;stroke-opacity:1"/><path fill="#01E656" stroke="#000" stroke-linecap="round" stroke-linejoin="round" stroke-width=".486" d="M34.037 47.137c0-8.458-6.854-15.313-15.313-15.313S3.411 38.68 3.411 47.137c0 8.459 6.854 15.313 15.313 15.313s15.313-6.854 15.313-15.313Z" style="fill:#01e656;fill:color(display-p3 .0039 .902 .3373);fill-opacity:1;stroke:#000;stroke-opacity:1"/><path fill="#fff" stroke="#000" stroke-miterlimit="10" stroke-width=".486" d="M21.787 46.455c-.68-.267-1.361-.39-2.066-.51-.802-.146-1.653-.146-2.406-.535a.687.687 0 0 1-.365-.778c.122-.535.486-.802.972-.948.535-.17 1.046-.17 1.629-.073.778.146 1.264.51 1.385 1.313 0 .121.098.121.17.121h1.702c.17 0 .194-.073.194-.219-.048-.267-.072-1.41-1.166-2.285-.535-.413-1.167-.631-1.823-.729-.17-.024-.243-.073-.219-.267l.122-1.118s.097-.195-.462-.195H18.36c-.146 0-.194.049-.194.195.048.364.072.753.097 1.118 0 .146 0 .219-.17.219-1.653.073-2.334.923-2.626 1.337-.364.534-.559 1.24-.583 1.53-.049.681.097 1.29.608 1.8.34.34.753.583 1.215.729.632.194 2.674.486 3.452.632.948.17 1.24.534 1.02 1.288-.17.486-.559.73-1.02.875-.39.122-1.58.194-2.188 0-.559-.194-1.045-.486-1.142-1.118-.049-.268-.146-.39-.414-.34H14.86c-.073 0-.122.097-.122.17.049.583.414 2.868 3.063 3.11.486.05.486.074.437.536-.024.291-.048.583-.072.85 0 .122.072.195.194.195h.997c.559 0 .583.048.534-.34l-.073-.778c0-.365 0-.413.292-.438.049 0 .632-.121.753-.146 1.337-.364 2.285-1.093 2.48-2.552.218-1.75-.705-2.358-1.507-2.698l-.049.049Z" style="fill:#fff;fill-opacity:1;stroke:#000;stroke-opacity:1"/><path fill="#fff" stroke="#000" stroke-linecap="round" stroke-linejoin="round" stroke-width=".486" d="M10.095 47.16c0-5.663 4.716-10.28 10.525-10.28 5.81 0 3.646.485 5.177 1.312a4.52 4.52 0 0 0-.243-.608c-.9-2.26-2.965-3.938-5.444-3.938-7.633 0-13.83 6.053-13.83 13.49 0 7.438 6.197 13.49 13.83 13.49 7.632 0 4.57-1.677 5.444-3.937.073-.195.17-.413.243-.608-1.531.85-3.281 1.313-5.177 1.313-5.81 0-10.525-4.594-10.525-10.282v.049Z" style="fill:#fff;fill-opacity:1;stroke:#000;stroke-opacity:1"/><path fill="#fff" stroke="#000" stroke-linecap="round" stroke-linejoin="round" stroke-width=".486" d="M25.798 38.217a26.032 26.032 0 0 1 1.58 8.944c0 3.136-.56 6.15-1.58 8.945 3.208-1.774 5.372-5.104 5.372-8.945 0-3.84-2.164-7.194-5.372-8.944Z" style="fill:#fff;fill-opacity:1;stroke:#000;stroke-opacity:1"/><path fill="#008F2D" stroke="#000" stroke-linecap="round" stroke-miterlimit="10" stroke-width=".486" d="M29.808 52.242c.705.048 2.48-.438 3.257-1.702.827-1.312.56-3.038-.17-4.837-.729-1.798-2.503-3.864-2.503-3.864s-1.24-1.678-4.084-3.768c-2.843-2.09-4.934-3.038-4.934-3.038-1.871-.972-6.854-2.674-9.31-1.313-2.624 1.459-1.92 4.084-1.92 4.084s.803-.827 1.532-1.361c1.288-.924 1.969-1.216 1.969-1.216s2.625-.267 6.076 1.434c2.723 1.337 4.205 2.504 4.74 2.917.56.438 2.77 2.066 4.375 4.205 1.434 1.896 2.09 3.379 2.236 4.521 0 0-.048.948-.462 2.115-.388 1.07-.802 1.798-.802 1.798v.025Zm-4.011 3.864s2.066 2.115.802 3.67c-1.58 1.945-7.146.875-9.26 0-6.004-2.528-9.31-5.712-9.31-5.712s-4.74-4.788-4.108-8.07c.365-1.871 2.14-1.871 2.674-1.871 0 0-.389 1.75-.34 3.233.048 1.166 1.482 2.82 3.087 4.57 1.628 1.774 3.937 3.402 4.618 3.815.68.39 1.215.924 5.128 2.285 3.744 1.313 5.202.705 5.202.705s1.045-1.337 1.458-2.6l.049-.025Z" style="fill:#008f2d;fill:color(display-p3 0 .5608 .1765);fill-opacity:1;stroke:#000;stroke-opacity:1"/><path fill="#01E656" stroke="#000" stroke-linecap="round" stroke-linejoin="round" stroke-width=".486" d="M94.025 65.563c0-13.101-10.622-23.723-23.723-23.723-13.101 0-23.723 10.622-23.723 23.723 0 13.1 10.622 23.723 23.723 23.723 13.101 0 23.723-10.622 23.723-23.723Z" style="fill:#01e656;fill:color(display-p3 .0039 .902 .3373);fill-opacity:1;stroke:#000;stroke-opacity:1"/><path fill="#fff" stroke="#000" stroke-miterlimit="10" stroke-width=".486" d="M75.066 64.519c-1.046-.413-2.115-.608-3.209-.802-1.24-.219-2.552-.219-3.719-.827-.437-.218-.656-.729-.559-1.19.195-.803.754-1.265 1.483-1.483.826-.243 1.629-.268 2.504-.097 1.215.243 1.968.802 2.138 2.017.025.194.122.194.292.194h2.625c.243 0 .316-.097.292-.316-.073-.437-.122-2.187-1.823-3.524-.827-.632-1.799-.972-2.82-1.118-.267-.049-.388-.122-.34-.413l.195-1.75s.145-.292-.705-.292h-1.702c-.243 0-.316.073-.291.316.072.583.097 1.167.17 1.75 0 .219 0 .34-.243.365-2.577.097-3.622 1.434-4.084 2.09-.583.802-.875 1.896-.923 2.382-.073 1.045.17 2.017.923 2.77.535.536 1.167.9 1.896 1.119.972.292 4.132.753 5.347.972 1.459.268 1.92.827 1.58 1.993-.291.73-.85 1.143-1.58 1.337-.583.17-2.454.316-3.402 0-.851-.291-1.605-.753-1.775-1.726-.073-.413-.218-.607-.632-.534h-2.406a.237.237 0 0 0-.195.243c.073.9.657 4.448 4.765 4.837.729.073.729.121.68.826-.049.438-.073.9-.121 1.337 0 .17.097.316.291.316h1.532c.875 0 .899.073.826-.51l-.122-1.216c0-.559-.024-.632.462-.656.073 0 .972-.195 1.143-.243 2.09-.56 3.548-1.702 3.84-3.962.34-2.698-1.094-3.646-2.333-4.156v-.05Z" style="fill:#fff;fill-opacity:1;stroke:#000;stroke-opacity:1"/><path fill="#fff" stroke="#000" stroke-linecap="round" stroke-linejoin="round" stroke-width=".486" d="M56.958 65.587c0-8.775 7.292-15.92 16.31-15.92 9.017 0 5.639.753 7.996 2.041l-.364-.948c-1.386-3.476-4.618-6.076-8.434-6.076-11.838 0-21.414 9.358-21.414 20.903 0 11.545 9.6 20.903 21.414 20.903 11.812 0 7.073-2.6 8.434-6.076l.364-.948c-2.357 1.312-5.104 2.042-7.996 2.042-9.018 0-16.31-7.122-16.31-15.921Z" style="fill:#fff;fill-opacity:1;stroke:#000;stroke-opacity:1"/><path fill="#fff" stroke="#000" stroke-linecap="round" stroke-linejoin="round" stroke-width=".486" d="M81.264 51.732a40.322 40.322 0 0 1 2.455 13.855c0 4.861-.851 9.528-2.455 13.855 4.958-2.723 8.312-7.924 8.312-13.855 0-5.93-3.354-11.132-8.312-13.855Z" style="fill:#fff;fill-opacity:1;stroke:#000;stroke-opacity:1"/><path fill="#008F2D" stroke="#000" stroke-linecap="round" stroke-miterlimit="10" stroke-width=".486" d="M87.487 73.462c1.094.073 3.84-.656 5.056-2.625 1.288-2.041.85-4.69-.267-7.486-1.118-2.77-3.89-5.98-3.89-5.98s-1.92-2.6-6.32-5.857c-4.398-3.233-7.656-4.691-7.656-4.691-2.892-1.507-10.597-4.132-14.438-2.018-4.083 2.236-2.965 6.32-2.965 6.32s1.24-1.264 2.382-2.09c2.018-1.434 3.063-1.872 3.063-1.872s4.083-.389 9.406 2.212c4.23 2.066 6.539 3.865 7.34 4.497.876.68 4.303 3.208 6.782 6.514 2.236 2.94 3.233 5.226 3.452 7 0 0-.049 1.483-.73 3.281-.607 1.653-1.24 2.795-1.24 2.795h.025Zm-6.223 5.98s3.209 3.282 1.24 5.688c-2.455 2.99-11.06 1.361-14.317 0-9.284-3.89-14.413-8.848-14.413-8.848s-7.34-7.413-6.344-12.493c.559-2.892 3.306-2.892 4.156-2.892 0 0-.632 2.722-.534 5.007.072 1.798 2.309 4.35 4.788 7.073 2.528 2.77 6.076 5.298 7.146 5.906 1.07.608 1.872 1.434 7.948 3.549 5.785 2.017 8.07 1.07 8.07 1.07s1.604-2.067 2.26-4.035v-.025Z" style="fill:#008f2d;fill:color(display-p3 0 .5608 .1765);fill-opacity:1;stroke:#000;stroke-opacity:1"/><path fill="#01E656" stroke="#000" stroke-linecap="round" stroke-linejoin="round" stroke-width=".486" d="M98.06 111.867c0-6.15-4.982-11.133-11.132-11.133-6.15 0-11.132 4.983-11.132 11.133 0 6.149 4.983 11.132 11.132 11.132 6.15 0 11.132-4.983 11.132-11.132Z" style="fill:#01e656;fill:color(display-p3 .0039 .902 .3373);fill-opacity:1;stroke:#000;stroke-opacity:1"/><path fill="#fff" stroke="#000" stroke-miterlimit="10" stroke-width=".486" d="M89.189 111.38c-.486-.194-.997-.291-1.507-.389-.584-.097-1.191-.097-1.75-.388a.524.524 0 0 1-.268-.56c.098-.388.365-.583.705-.68.39-.122.754-.122 1.167-.049.56.122.924.365.997.948 0 .097.073.097.121.097h1.215c.122 0 .146-.048.122-.145-.024-.195-.049-1.021-.85-1.653a2.95 2.95 0 0 0-1.313-.535c-.122 0-.17-.049-.17-.194l.097-.827s.073-.146-.34-.146h-.803c-.121 0-.145.025-.121.146.024.268.049.535.073.827 0 .097 0 .17-.122.17-1.19.048-1.701.68-1.92.972a2.886 2.886 0 0 0-.438 1.118c-.024.486.073.948.438 1.313.243.243.56.413.9.534.461.146 1.944.341 2.503.462.68.122.9.389.73.924-.122.34-.39.535-.73.632-.267.073-1.142.146-1.604 0-.39-.146-.754-.34-.827-.802-.024-.195-.097-.292-.291-.243h-1.118c-.05 0-.098.073-.098.121.049.413.316 2.09 2.237 2.261.34.024.34.048.316.389 0 .218-.025.413-.05.632 0 .072.05.145.147.145h.705c.413 0 .413.025.389-.243l-.05-.559c0-.267 0-.291.22-.316.024 0 .461-.097.534-.097.973-.267 1.653-.802 1.799-1.847.146-1.264-.51-1.702-1.094-1.945l.049-.073Z" style="fill:#fff;fill-opacity:1;stroke:#000;stroke-opacity:1"/><path fill="#fff" stroke="#000" stroke-linecap="round" stroke-linejoin="round" stroke-width=".486" d="M80.683 111.866c0-4.108 3.427-7.462 7.632-7.462 1.361 0 2.65.34 3.743.948-.048-.146-.121-.292-.17-.438-.656-1.628-2.163-2.844-3.962-2.844-5.542 0-10.038 4.375-10.038 9.796 0 5.42 4.496 9.795 10.038 9.795 1.799 0 3.306-1.215 3.962-2.844.049-.146.122-.291.17-.437a7.788 7.788 0 0 1-3.743.948c-4.23 0-7.632-3.33-7.632-7.462Zm11.4-6.491a18.602 18.602 0 0 1 1.142 6.49c0 2.285-.413 4.472-1.142 6.49 2.333-1.289 3.889-3.719 3.889-6.49 0-2.795-1.58-5.226-3.889-6.49Z" style="fill:#fff;fill-opacity:1;stroke:#000;stroke-opacity:1"/><path fill="#008F2D" stroke="#000" stroke-linecap="round" stroke-miterlimit="10" stroke-width=".486" d="M94.998 115.561c.51.025 1.799-.316 2.382-1.239.608-.948.39-2.188-.121-3.5-.535-1.313-1.823-2.796-1.823-2.796s-.9-1.215-2.966-2.746c-2.066-1.507-3.597-2.188-3.597-2.188-1.361-.705-4.958-1.944-6.757-.948-1.92 1.045-1.385 2.966-1.385 2.966s.583-.584 1.118-.973c.948-.68 1.434-.875 1.434-.875s1.92-.194 4.4 1.045c1.992.973 3.062 1.799 3.45 2.115.414.316 2.018 1.507 3.185 3.038 1.045 1.386 1.531 2.455 1.604 3.282 0 0-.024.705-.34 1.531-.292.778-.584 1.313-.584 1.313v-.025Zm-2.916 2.819s1.507 1.532.583 2.65c-1.143 1.409-5.177.632-6.709 0-4.35-1.823-6.757-4.157-6.757-4.157s-3.451-3.476-2.99-5.858c.268-1.361 1.556-1.361 1.945-1.361 0 0-.292 1.289-.243 2.358.024.851 1.07 2.042 2.236 3.306 1.191 1.288 2.844 2.479 3.354 2.771.51.291.875.68 3.72 1.652 2.722.948 3.767.511 3.767.511s.753-.972 1.07-1.896l.023.024Z" style="fill:#008f2d;fill:color(display-p3 0 .5608 .1765);fill-opacity:1;stroke:#000;stroke-opacity:1"/><path stroke="url(#a)" stroke-dasharray="1.68 1.68" stroke-linecap="round" stroke-linejoin="round" stroke-width=".486" d="M95.434 57.64c6.272.39 10.452 1.97 11.181 4.716 1.532 5.785-13.052 14.56-32.546 19.567-19.518 5.007-36.556 4.375-38.088-1.41-.753-2.893 2.504-6.539 8.386-10.087"/><path fill="#A4A2AF" stroke="#6C6D7B" stroke-linecap="round" stroke-linejoin="round" stroke-width=".486" d="M38.339 81.242a2.686 2.686 0 0 0-1.41-3.525 2.686 2.686 0 0 0-3.524 1.41 2.686 2.686 0 0 0 1.41 3.524 2.686 2.686 0 0 0 3.524-1.41Z" style="fill:#a4a2af;fill:color(display-p3 .6431 .6353 .6863);fill-opacity:1;stroke:#6c6d7b;stroke:color(display-p3 .4235 .4275 .4824);stroke-opacity:1"/><path fill="#fff" stroke="#CECECE" stroke-linecap="round" stroke-linejoin="round" stroke-width=".486" d="M103.456 71.494a2.481 2.481 0 0 0-1.312-3.257 2.518 2.518 0 0 0-3.282 1.313 2.482 2.482 0 0 0 1.313 3.257 2.517 2.517 0 0 0 3.281-1.313ZM39.215 83.38a1.31 1.31 0 0 0-.705-1.75 1.31 1.31 0 0 0-1.75.705c-.292.705 0 1.458.705 1.75.68.291 1.458 0 1.75-.705Zm59.963-25.305a1.31 1.31 0 0 0-.704-1.75 1.31 1.31 0 0 0-1.75.705c-.292.705 0 1.458.704 1.75a1.31 1.31 0 0 0 1.75-.705Z" style="fill:#fff;fill-opacity:1;stroke:#cecece;stroke:color(display-p3 .8078 .8078 .8078);stroke-opacity:1"/><path fill="#A4A2AF" stroke="#6C6D7B" stroke-linecap="round" stroke-linejoin="round" stroke-width=".486" d="M103.48 59.001c.534-1.264-.049-2.746-1.313-3.281-1.264-.535-2.746.048-3.281 1.312-.535 1.264.048 2.747 1.312 3.282 1.264.534 2.747-.049 3.282-1.313Z" style="fill:#a4a2af;fill:color(display-p3 .6431 .6353 .6863);fill-opacity:1;stroke:#6c6d7b;stroke:color(display-p3 .4235 .4275 .4824);stroke-opacity:1"/><path fill="#fff" stroke="#CECECE" stroke-linecap="round" stroke-linejoin="round" stroke-width=".486" d="M58.344 85.98a2.268 2.268 0 0 0-1.191-2.964 2.268 2.268 0 0 0-2.965 1.19 2.268 2.268 0 0 0 1.19 2.966 2.268 2.268 0 0 0 2.966-1.191Z" style="fill:#fff;fill-opacity:1;stroke:#cecece;stroke:color(display-p3 .8078 .8078 .8078);stroke-opacity:1"/><path fill="#54555F" stroke="#000" stroke-linecap="round" stroke-linejoin="round" stroke-width=".486" d="M56.521 31.337c1.288-3.038-.097-6.539-3.135-7.827-3.039-1.288-6.539.097-7.827 3.136-1.288 3.038.097 6.538 3.136 7.826 3.038 1.288 6.538-.097 7.826-3.135Z" style="fill:#54555f;fill:color(display-p3 .3294 .3333 .3725);fill-opacity:1;stroke:#000;stroke-opacity:1"/><path stroke="url(#b)" stroke-dasharray="2.04 2.04" stroke-linecap="round" stroke-linejoin="round" stroke-width=".486" d="M60.652 33.088c2.285-5.299-.194-11.448-5.493-13.733s-11.448.194-13.733 5.493.194 11.448 5.493 13.733 11.449-.195 13.733-5.493Z"/><path fill="#CECECE" stroke="#000" stroke-linecap="round" stroke-linejoin="round" stroke-width=".486" d="M121.879 57.2a4.301 4.301 0 0 0-2.26-5.64 4.301 4.301 0 0 0-5.639 2.261 4.301 4.301 0 0 0 2.26 5.64 4.301 4.301 0 0 0 5.639-2.261Z" style="fill:#cecece;fill:color(display-p3 .8078 .8078 .8078);fill-opacity:1;stroke:#000;stroke-opacity:1"/><path stroke="url(#c)" stroke-dasharray="1.34 1.34" stroke-linecap="round" stroke-linejoin="round" stroke-width=".486" d="M124.043 58.125c1.458-3.379-.122-7.292-3.5-8.726-3.379-1.458-7.292.121-8.75 3.5-1.459 3.379.121 7.292 3.5 8.726 3.378 1.458 7.292-.121 8.75-3.5Z"/><path fill="#A4A2AF" stroke="#6C6D7B" stroke-linecap="round" stroke-linejoin="round" stroke-width=".486" d="M55.962 103.797c.754-1.725-.049-3.743-1.799-4.496-1.725-.754-3.743.048-4.496 1.798a3.407 3.407 0 0 0 1.798 4.497c1.726.753 3.744-.049 4.497-1.799Z" style="fill:#a4a2af;fill:color(display-p3 .6431 .6353 .6863);fill-opacity:1;stroke:#6c6d7b;stroke:color(display-p3 .4235 .4275 .4824);stroke-opacity:1"/><path stroke="url(#d)" stroke-dasharray="1.68 1.68" stroke-linecap="round" stroke-linejoin="round" stroke-width=".486" d="M59.219 105.181c1.507-3.524-.122-7.632-3.646-9.139-3.524-1.507-7.632.122-9.14 3.646-1.506 3.525.122 7.632 3.647 9.139 3.524 1.507 7.632-.121 9.139-3.646Z"/><g style="mix-blend-mode:multiply"><path fill="#CCC" d="m34.839 55.184 2.066-3.11-3.282-1.338s-.243 1.702-1.264 3.428l2.504 1.02h-.024Z" style="fill:#ccc;fill:color(display-p3 .8 .8 .8);fill-opacity:1"/></g><g style="mix-blend-mode:multiply"><path fill="#CCC" d="m88.217 37.27 2.43 2.455 1.556-2.188-2.795-1.92-1.191 1.653Z" style="fill:#ccc;fill:color(display-p3 .8 .8 .8);fill-opacity:1"/></g><g style="mix-blend-mode:multiply"><path fill="#CCC" d="m78.493 90.89 3.355-1.604-.9-2.48-3.5 1.386 1.045 2.698Z" style="fill:#ccc;fill:color(display-p3 .8 .8 .8);fill-opacity:1"/></g><g style="mix-blend-mode:multiply"><path fill="#CCC" d="M46.167 55.843 44.83 59.22l2.358.948s.534-2.236 1.094-3.5l-2.115-.85v.024Z" style="fill:#ccc;fill:color(display-p3 .8 .8 .8);fill-opacity:1"/></g><g style="mix-blend-mode:multiply"><path fill="#CCC" d="m81.75 100.249 3.257-1.726.73 2.237s-2.286.68-3.38.996l-.607-1.483v-.024Z" style="fill:#ccc;fill:color(display-p3 .8 .8 .8);fill-opacity:1"/></g><g style="mix-blend-mode:multiply"><path fill="#CCC" d="m83.67 43.639 2.626 2.187-1.094 1.264-2.65-1.871 1.119-1.58Z" style="fill:#ccc;fill:color(display-p3 .8 .8 .8);fill-opacity:1"/></g><defs><linearGradient id="a" x1="35.617" x2="106.98" y1="71.471" y2="71.471" gradientUnits="userSpaceOnUse"><stop stop-color="#F96963" style="stop-color:#f96963;stop-color:color(display-p3 .9765 .4118 .3882);stop-opacity:1"/><stop offset=".3" stop-color="#EE4783" style="stop-color:#ee4783;stop-color:color(display-p3 .9333 .2784 .5137);stop-opacity:1"/><stop offset=".4" stop-color="#EB3B90" style="stop-color:#eb3b90;stop-color:color(display-p3 .9216 .2314 .5647);stop-opacity:1"/><stop offset=".5" stop-color="#D23C96" style="stop-color:#d23c96;stop-color:color(display-p3 .8235 .2353 .5882);stop-opacity:1"/><stop offset=".8" stop-color="#933EA5" style="stop-color:#933ea5;stop-color:color(display-p3 .5765 .2431 .6471);stop-opacity:1"/><stop offset="1" stop-color="#5F41B2" style="stop-color:#5f41b2;stop-color:color(display-p3 .3725 .2549 .698);stop-opacity:1"/></linearGradient><linearGradient id="b" x1="40.332" x2="61.746" y1="28.98" y2="28.98" gradientUnits="userSpaceOnUse"><stop stop-color="#F96963" style="stop-color:#f96963;stop-color:color(display-p3 .9765 .4118 .3882);stop-opacity:1"/><stop offset=".3" stop-color="#EE4783" style="stop-color:#ee4783;stop-color:color(display-p3 .9333 .2784 .5137);stop-opacity:1"/><stop offset=".4" stop-color="#EB3B90" style="stop-color:#eb3b90;stop-color:color(display-p3 .9216 .2314 .5647);stop-opacity:1"/><stop offset=".5" stop-color="#D23C96" style="stop-color:#d23c96;stop-color:color(display-p3 .8235 .2353 .5882);stop-opacity:1"/><stop offset=".8" stop-color="#933EA5" style="stop-color:#933ea5;stop-color:color(display-p3 .5765 .2431 .6471);stop-opacity:1"/><stop offset="1" stop-color="#5F41B2" style="stop-color:#5f41b2;stop-color:color(display-p3 .3725 .2549 .698);stop-opacity:1"/></linearGradient><linearGradient id="c" x1="111.073" x2="124.782" y1="55.5" y2="55.5" gradientUnits="userSpaceOnUse"><stop stop-color="#F96963" style="stop-color:#f96963;stop-color:color(display-p3 .9765 .4118 .3882);stop-opacity:1"/><stop offset=".3" stop-color="#EE4783" style="stop-color:#ee4783;stop-color:color(display-p3 .9333 .2784 .5137);stop-opacity:1"/><stop offset=".4" stop-color="#EB3B90" style="stop-color:#eb3b90;stop-color:color(display-p3 .9216 .2314 .5647);stop-opacity:1"/><stop offset=".5" stop-color="#D23C96" style="stop-color:#d23c96;stop-color:color(display-p3 .8235 .2353 .5882);stop-opacity:1"/><stop offset=".8" stop-color="#933EA5" style="stop-color:#933ea5;stop-color:color(display-p3 .5765 .2431 .6471);stop-opacity:1"/><stop offset="1" stop-color="#5F41B2" style="stop-color:#5f41b2;stop-color:color(display-p3 .3725 .2549 .698);stop-opacity:1"/></linearGradient><linearGradient id="d" x1="45.607" x2="60.021" y1="102.435" y2="102.435" gradientUnits="userSpaceOnUse"><stop stop-color="#F96963" style="stop-color:#f96963;stop-color:color(display-p3 .9765 .4118 .3882);stop-opacity:1"/><stop offset=".3" stop-color="#EE4783" style="stop-color:#ee4783;stop-color:color(display-p3 .9333 .2784 .5137);stop-opacity:1"/><stop offset=".4" stop-color="#EB3B90" style="stop-color:#eb3b90;stop-color:color(display-p3 .9216 .2314 .5647);stop-opacity:1"/><stop offset=".5" stop-color="#D23C96" style="stop-color:#d23c96;stop-color:color(display-p3 .8235 .2353 .5882);stop-opacity:1"/><stop offset=".8" stop-color="#933EA5" style="stop-color:#933ea5;stop-color:color(display-p3 .5765 .2431 .6471);stop-opacity:1"/><stop offset="1" stop-color="#5F41B2" style="stop-color:#5f41b2;stop-color:color(display-p3 .3725 .2549 .698);stop-opacity:1"/></linearGradient></defs></svg>