<svg xmlns="http://www.w3.org/2000/svg" width="129" height="120" fill="none"><path fill="#fff" stroke="url(#a)" stroke-miterlimit="10" stroke-width=".241" d="M25.443 73.227c9.581-.033 17.33-5.307 17.308-11.779-.023-6.471-7.808-11.69-17.39-11.657-9.58.034-17.329 5.307-17.306 11.779.022 6.471 7.807 11.69 17.388 11.657Z" style="fill:#fff;fill-opacity:1"/><path fill="#fff" stroke="url(#b)" stroke-miterlimit="10" stroke-width=".241" d="M107.421 73.204c9.581-.034 17.33-5.307 17.307-11.779-.023-6.472-7.808-11.69-17.389-11.657-9.58.033-17.33 5.306-17.307 11.778.023 6.472 7.808 11.691 17.389 11.658Z" style="fill:#fff;fill-opacity:1"/><path stroke="#CECECE" stroke-dasharray="1.27 1.27" stroke-linecap="round" stroke-linejoin="round" stroke-width=".241" d="M66.282 71.49c7.39-.026 13.367-4.095 13.35-9.089-.018-4.993-6.023-9.02-13.413-8.995-7.39.026-13.368 4.095-13.35 9.089.017 4.993 6.022 9.02 13.413 8.995Z" style="stroke:#cecece;stroke:color(display-p3 .8078 .8078 .8078);stroke-opacity:1"/><path stroke="url(#c)" stroke-miterlimit="10" stroke-width=".241" d="M66.275 69.55c5.806-.02 10.501-3.216 10.488-7.138-.014-3.922-4.732-7.084-10.538-7.064-5.805.02-10.501 3.216-10.487 7.138.013 3.921 4.731 7.084 10.537 7.063Z"/><path fill="#C5C5C5" stroke="#000" stroke-miterlimit="10" stroke-width=".241" d="M66.269 67.28c3.948-.014 7.141-2.189 7.132-4.859-.01-2.67-3.218-4.823-7.166-4.81-3.948.015-7.142 2.19-7.132 4.86.01 2.67 3.217 4.823 7.166 4.81Z" style="fill:#c5c5c5;fill:color(display-p3 .7725 .7725 .7725);fill-opacity:1;stroke:#000;stroke-opacity:1"/><path fill="#7A7A7A" d="M66.76 50.816v11.826c0 .108-.072.217-.216.29-.278.168-.736.168-1.013 0-.133-.085-.193-.181-.205-.29V50.815c.278-.168 1.146-.156 1.423 0" style="fill:#7a7a7a;fill:color(display-p3 .4784 .4784 .4784);fill-opacity:1"/><path stroke="#020202" stroke-linecap="round" stroke-linejoin="round" stroke-width=".241" d="M66.76 50.816v11.826c0 .108-.072.217-.216.29-.278.168-.736.168-1.013 0-.133-.085-.193-.181-.205-.29V50.815c.278-.168 1.146-.156 1.423 0h.012Z" style="stroke:#020202;stroke:color(display-p3 .0078 .0078 .0078);stroke-opacity:1"/><path fill="#C5C5C5" d="m63.202 54.778 8.68 6.956c1.17-.567 2.99-1.17 2.99-2.35v-8.175c0-1.181-.711-2.543-1.603-3.062l-9.826-5.678a1.741 1.741 0 0 0-1.615-.072l-1.592.723 1.363 8.596c0 1.181.71 2.544 1.603 3.062Z" style="fill:#c5c5c5;fill:color(display-p3 .7725 .7725 .7725);fill-opacity:1"/><path stroke="#000" stroke-linecap="round" stroke-linejoin="round" stroke-width=".241" d="m63.202 54.778 8.825 6.932c.747-.169 2.845-1.145 2.845-2.327V51.21c0-1.181-.711-2.543-1.603-3.062l-9.826-5.678a1.741 1.741 0 0 0-1.615-.072l-1.592.723 1.363 8.596c0 1.181.71 2.544 1.603 3.062Z" style="stroke:#000;stroke-opacity:1"/><path fill="#FBFBFC" d="m61.117 55.717 10.066 5.81c.88.507 1.604-.035 1.604-1.205V52.15c0-1.182-.711-2.544-1.604-3.063l-10.066-5.81c-.88-.507-1.603.036-1.603 1.205v8.174c0 1.181.711 2.544 1.603 3.062Z" style="fill:#fbfbfc;fill:color(display-p3 .9843 .9843 .9882);fill-opacity:1"/><path stroke="#1D1D1B" stroke-linecap="round" stroke-linejoin="round" stroke-width=".241" d="m61.117 55.717 10.066 5.81c.88.507 1.604-.035 1.604-1.205V52.15c0-1.182-.711-2.544-1.604-3.063l-10.066-5.81c-.88-.507-1.603.036-1.603 1.205v8.174c0 1.181.711 2.544 1.603 3.062Z" style="stroke:#1d1d1b;stroke:color(display-p3 .1137 .1137 .1059);stroke-opacity:1"/><g style="mix-blend-mode:multiply"><path fill="#C5C5C5" d="m72.725 51.982 2.146-.976v8.692s-.663 1.47-2.977 2.025c0 0 .952-.036.892-1.398-.06-1.362-.06-8.343-.06-8.343Z" style="fill:#c5c5c5;fill:color(display-p3 .7725 .7725 .7725);fill-opacity:1"/></g><path fill="#1D1D1B" d="m62.057 54.826 8.186 4.726c.723.41 1.302-.024 1.302-.989v-6.1c0-.964-.579-2.074-1.302-2.483l-8.186-4.726c-.723-.41-1.302.024-1.302.988v6.1c0 .965.579 2.074 1.302 2.484Z" style="fill:#1d1d1b;fill:color(display-p3 .1137 .1137 .1059);fill-opacity:1"/><path fill="#fff" d="m61.106 50.33 6.535-1.46-2.978-1.723-3.557.843v2.34Zm10.03 1.598s.06.506.06 1.495v2.254l-6.003.627-2.098-1.145-.989-.53 9.042-2.701h-.012Z" opacity=".5" style="fill:#fff;fill-opacity:1"/><path stroke="#1D1D1B" stroke-linecap="round" stroke-linejoin="round" stroke-width=".241" d="m62.058 54.83 8.186 4.726c.723.41 1.302-.024 1.302-.989v-6.1c0-.965-.579-2.074-1.302-2.483l-8.186-4.726c-.724-.41-1.302.024-1.302.988v6.1c0 .965.578 2.074 1.302 2.484Z" style="stroke:#1d1d1b;stroke:color(display-p3 .1137 .1137 .1059);stroke-opacity:1"/><path fill="#01E656" stroke="#000" stroke-linecap="round" stroke-linejoin="round" stroke-width=".241" d="M70.63 54.71c-.011.964-.734 1.483-1.482 1.206-.65-.242-1.109-1.013-1.097-1.76.012-.736.506-1.315 1.157-1.267.748.049 1.435.856 1.423 1.82Zm-6.605-3.752c-.013.964-.736 1.483-1.483 1.206-.651-.242-1.11-1.013-1.097-1.76.012-.736.506-1.315 1.157-1.266.747.048 1.435.855 1.423 1.82Z" style="fill:#01e656;fill:color(display-p3 .0039 .902 .3373);fill-opacity:1;stroke:#000;stroke-opacity:1"/><path fill="#fff" d="M66.954 52.658c0 .675-.518 1.037-1.037.844-.458-.169-.772-.712-.76-1.23 0-.518.35-.916.808-.892.53.036 1.013.603 1 1.266" style="fill:#fff;fill-opacity:1"/><path stroke="#000" stroke-linecap="round" stroke-linejoin="round" stroke-width=".241" d="M66.954 52.658c0 .675-.518 1.037-1.037.844-.458-.169-.772-.712-.76-1.23 0-.518.35-.916.808-.892.53.036 1.013.603 1 1.266" style="stroke:#000;stroke-opacity:1"/><path stroke="url(#d)" stroke-miterlimit="10" stroke-width=".229" d="m28.035 47.418 34.01-19.855 47.993 27.366"/><path fill="#CECECE" stroke="#000" stroke-linecap="round" stroke-linejoin="round" stroke-width=".241" d="m52.882 40.062 6.366-.711-1.483-.88 4.062-2.303a.468.468 0 0 1 .47 0l4.28 2.544-1.253.76 6.63.904-.361-4.57-1.616.929-7.1-4.087a1.644 1.644 0 0 0-1.664 0l-6.752 3.87-1.543-.904-.048 4.448h.012Zm23.196 34.191-6.365.712 1.482.88-4.291 2.435-4.521-2.689 1.253-.76-6.63-.903.361 4.569 1.616-.928 7.1 4.086a1.644 1.644 0 0 0 1.664 0l6.752-3.87 1.543.905.048-4.449-.012.012Z" style="fill:#cecece;fill:color(display-p3 .8078 .8078 .8078);fill-opacity:1;stroke:#000;stroke-opacity:1"/><path fill="#7A7A7A" stroke="#000" stroke-linecap="round" stroke-linejoin="round" stroke-width=".241" d="M121.806 59.193c.012 5.365-6.402 9.74-14.346 9.765-7.945.024-14.395-4.304-14.407-9.669 0-.506-.048-4.424-.048-4.424s7.209-2.688 14.394-2.712c7.222-.025 13.31-1.953 14.334 2.724l.073 4.316Z" style="fill:#7a7a7a;fill:color(display-p3 .4784 .4784 .4784);fill-opacity:1;stroke:#000;stroke-opacity:1"/><g style="mix-blend-mode:overlay"><path fill="#CCC" d="M96.91 61.604v4.268s-1.952-1.495-2.712-2.81c-.76-1.313-1.145-3.098-1.145-3.098l-.048-1.543v-2.773s.277 3.364 3.906 5.956Z" style="fill:#ccc;fill:color(display-p3 .8 .8 .8);fill-opacity:1"/></g><path fill="#CECECE" stroke="#000" stroke-linecap="round" stroke-linejoin="round" stroke-width=".241" d="M107.428 64.622c7.943-.028 14.367-4.4 14.348-9.767-.019-5.367-6.473-9.695-14.416-9.667-7.943.028-14.367 4.4-14.349 9.767.02 5.367 6.474 9.694 14.417 9.667Z" style="fill:#cecece;fill:color(display-p3 .8078 .8078 .8078);fill-opacity:1;stroke:#000;stroke-opacity:1"/><path stroke="#000" stroke-linecap="round" stroke-linejoin="round" stroke-width=".241" d="M119.853 59.773v4.34m-3.679-1.493v4.194m-4.869-2.484v4.207m-5.209-3.822v4.195m-5.028-5.22v4.195m-4.158-6.17v4.075m-2.713-6.92v4.086" style="stroke:#000;stroke-opacity:1"/><g style="mix-blend-mode:multiply"><path fill="#CCC" d="M114.969 63.172v4.4s6.92-2.966 6.835-8.198v-3.737s-.398 4.906-6.835 7.522v.013Z" style="fill:#ccc;fill:color(display-p3 .8 .8 .8);fill-opacity:1"/></g><g style="mix-blend-mode:multiply"><path fill="#CCC" d="M113.306 63.775v4.292s-3.303.868-4.569.856v-4.328s3.46-.446 4.569-.808v-.012Z" style="fill:#ccc;fill:color(display-p3 .8 .8 .8);fill-opacity:1"/></g><g style="mix-blend-mode:multiply"><path fill="#CCC" d="M107.419 62.365c6.092-.022 11.019-3.38 11.005-7.501-.015-4.121-4.965-7.445-11.057-7.424-6.092.021-11.02 3.38-11.005 7.5.014 4.122 4.965 7.446 11.057 7.425Z" style="fill:#ccc;fill:color(display-p3 .8 .8 .8);fill-opacity:1"/></g><path stroke="#000" stroke-linecap="round" stroke-linejoin="round" stroke-width=".241" d="M107.419 62.365c6.092-.022 11.019-3.38 11.005-7.501-.015-4.121-4.965-7.445-11.057-7.424-6.092.021-11.02 3.38-11.005 7.5.014 4.122 4.965 7.446 11.057 7.425Z" style="stroke:#000;stroke-opacity:1"/><path fill="#7A7A7A" stroke="#000" stroke-linecap="round" stroke-linejoin="round" stroke-width=".241" d="M121.801 53.84c.012 5.364-6.402 9.74-14.346 9.764-7.945.025-14.395-4.303-14.407-9.668 0-.506-.048-4.425-.048-4.425s7.209-2.688 14.394-2.712c7.222-.024 13.31-1.953 14.335 2.724l.072 4.316Z" style="fill:#7a7a7a;fill:color(display-p3 .4784 .4784 .4784);fill-opacity:1;stroke:#000;stroke-opacity:1"/><g style="mix-blend-mode:overlay"><path fill="#CCC" d="M96.906 56.26v4.268s-1.953-1.495-2.713-2.81c-.759-1.313-1.145-3.097-1.145-3.097L93 53.077v-2.772s.277 3.363 3.906 5.955Z" style="fill:#ccc;fill:color(display-p3 .8 .8 .8);fill-opacity:1"/></g><path fill="#CECECE" stroke="#000" stroke-linecap="round" stroke-linejoin="round" stroke-width=".241" d="M107.416 59.278c7.943-.028 14.367-4.4 14.348-9.767-.018-5.367-6.473-9.694-14.416-9.667-7.943.028-14.367 4.4-14.348 9.767.019 5.367 6.473 9.695 14.416 9.667Z" style="fill:#cecece;fill:color(display-p3 .8078 .8078 .8078);fill-opacity:1;stroke:#000;stroke-opacity:1"/><path stroke="#000" stroke-linecap="round" stroke-linejoin="round" stroke-width=".241" d="M119.848 54.418v4.34m-3.678-1.496v4.207m-4.871-2.483v4.196m-5.207-3.822v4.207m-5.029-5.231v4.207m-4.159-6.183v4.086m-2.712-6.93v4.087" style="stroke:#000;stroke-opacity:1"/><g style="mix-blend-mode:multiply"><path fill="#CCC" d="M114.965 57.818v4.4s6.92-2.965 6.835-8.198v-3.737s-.397 4.907-6.835 7.523v.012Z" style="fill:#ccc;fill:color(display-p3 .8 .8 .8);fill-opacity:1"/></g><g style="mix-blend-mode:multiply"><path fill="#CCC" d="M113.302 58.434v4.291s-3.303.868-4.569.856v-4.328s3.46-.446 4.569-.807v-.012Z" style="fill:#ccc;fill:color(display-p3 .8 .8 .8);fill-opacity:1"/></g><g style="mix-blend-mode:multiply"><path fill="#CCC" d="M107.41 57.023c6.092-.021 11.019-3.38 11.005-7.5-.015-4.122-4.965-7.446-11.057-7.425-6.092.022-11.02 3.38-11.005 7.501.015 4.122 4.965 7.445 11.057 7.424Z" style="fill:#ccc;fill:color(display-p3 .8 .8 .8);fill-opacity:1"/></g><path stroke="#000" stroke-linecap="round" stroke-linejoin="round" stroke-width=".241" d="M107.41 57.023c6.092-.021 11.019-3.38 11.005-7.5-.015-4.122-4.965-7.446-11.057-7.425-6.092.022-11.02 3.38-11.005 7.501.015 4.122 4.965 7.445 11.057 7.424Z" style="stroke:#000;stroke-opacity:1"/><path fill="#7A7A7A" stroke="#000" stroke-linecap="round" stroke-linejoin="round" stroke-width=".241" d="M121.803 48.49c.012 5.365-6.402 9.74-14.346 9.765-7.945.024-14.395-4.304-14.407-9.669 0-.506-.048-4.424-.048-4.424s7.209-2.688 14.394-2.713c7.222-.024 13.31-1.953 14.335 2.725l.072 4.316Z" style="fill:#7a7a7a;fill:color(display-p3 .4784 .4784 .4784);fill-opacity:1;stroke:#000;stroke-opacity:1"/><g style="mix-blend-mode:overlay"><path fill="#CCC" d="M96.908 50.9v4.269s-1.953-1.495-2.713-2.81c-.759-1.314-1.145-3.098-1.145-3.098l-.048-1.543v-2.773s.277 3.364 3.906 5.956Z" style="fill:#ccc;fill:color(display-p3 .8 .8 .8);fill-opacity:1"/></g><path fill="#CECECE" stroke="#000" stroke-linecap="round" stroke-linejoin="round" stroke-width=".241" d="M107.424 53.919c7.943-.028 14.367-4.401 14.348-9.767-.019-5.367-6.473-9.695-14.416-9.667-7.943.028-14.367 4.4-14.348 9.767.018 5.366 6.473 9.694 14.416 9.666Z" style="fill:#cecece;fill:color(display-p3 .8078 .8078 .8078);fill-opacity:1;stroke:#000;stroke-opacity:1"/><path stroke="#000" stroke-linecap="round" stroke-linejoin="round" stroke-width=".241" d="M119.85 49.07v4.34m-3.678-1.508v4.208m-4.87-2.483v4.195m-5.208-3.81v4.195m-5.028-5.219v4.196M96.907 51v4.087m-2.712-6.921v4.075" style="stroke:#000;stroke-opacity:1"/><g style="mix-blend-mode:multiply"><path fill="#CCC" d="M114.967 52.459v4.4s6.92-2.966 6.835-8.198v-3.737s-.397 4.907-6.835 7.523v.012Z" style="fill:#ccc;fill:color(display-p3 .8 .8 .8);fill-opacity:1"/></g><g style="mix-blend-mode:multiply"><path fill="#CCC" d="M113.302 53.076v4.292s-3.303.868-4.569.856v-4.328s3.46-.446 4.569-.808v-.012Z" style="fill:#ccc;fill:color(display-p3 .8 .8 .8);fill-opacity:1"/></g><g style="mix-blend-mode:multiply"><path fill="#CCC" d="M107.417 51.666c6.092-.022 11.019-3.38 11.005-7.501-.015-4.122-4.965-7.446-11.057-7.424-6.092.021-11.02 3.38-11.005 7.5.014 4.122 4.965 7.446 11.057 7.425Z" style="fill:#ccc;fill:color(display-p3 .8 .8 .8);fill-opacity:1"/></g><path stroke="#000" stroke-linecap="round" stroke-linejoin="round" stroke-width=".241" d="M107.417 51.666c6.092-.022 11.019-3.38 11.005-7.501-.015-4.122-4.965-7.446-11.057-7.424-6.092.021-11.02 3.38-11.005 7.5.014 4.122 4.965 7.446 11.057 7.425Z" style="stroke:#000;stroke-opacity:1"/><g style="mix-blend-mode:multiply"><path fill="#CCC" d="M107.412 50.581c5.213-.018 9.429-2.888 9.417-6.41-.012-3.522-4.248-6.363-9.462-6.345-5.213.019-9.43 2.889-9.417 6.41.012 3.523 4.248 6.363 9.462 6.345Z" style="fill:#ccc;fill:color(display-p3 .8 .8 .8);fill-opacity:1"/></g><path fill="#fff" stroke="#000" stroke-linecap="round" stroke-linejoin="round" stroke-width=".241" d="M109.53 41.875c-.844.217-1.579.53-2.327.844-.856.361-1.615.807-2.616 1.012-.374.085-.783 0-.964-.18-.326-.326-.229-.651.084-.977.35-.362.808-.639 1.411-.892.831-.338 1.579-.422 2.35-.096.121.048.181.012.278-.037.506-.301 1.024-.602 1.543-.904.157-.084.132-.145 0-.205-.265-.108-1.242-.65-2.954-.482a7.3 7.3 0 0 0-2.254.615c-.181.084-.29.096-.422 0l-.832-.615s-.072-.145-.567.145c-.325.193-.651.398-.988.59-.145.085-.145.133 0 .193.349.157.687.326 1.037.495.132.06.18.108.048.193-1.447.916-1.338 1.687-1.266 2.049.096.446.506.892.747 1.06.519.35 1.17.568 2.026.555.591 0 1.157-.12 1.7-.289.723-.241 2.821-1.17 3.653-1.519 1-.422 1.567-.398 1.989.084.229.326.096.651-.205.965-.253.253-1.278.94-2.001 1.157-.651.205-1.339.314-1.966.06-.265-.108-.446-.108-.663.049l-1.386.82c-.06.036-.06.096 0 .132.53.253 2.749 1.17 5.353-.096.47-.23.494-.205.844.024.217.157.434.301.639.458.084.06.229.06.337 0 .289-.18.603-.35.904-.518.519-.302.567-.278.205-.434l-.711-.338c-.314-.169-.35-.193-.084-.362.036-.024.482-.398.554-.47.928-.88 1.182-1.748.157-2.568-1.254-.964-2.604-.783-3.605-.506l-.048-.012Z" style="fill:#fff;fill-opacity:1;stroke:#000;stroke-opacity:1"/><g style="mix-blend-mode:overlay"><path fill="#CCC" d="m100.092 52.558 8.873-17.95s1.483.096 2.314.24l-8.197 18.663s-1.23-.23-2.978-.953h-.012Z" opacity=".7" style="fill:#ccc;fill:color(display-p3 .8 .8 .8);fill-opacity:1"/></g><g style="mix-blend-mode:overlay"><path fill="#CCC" d="m105.273 53.812 8.367-18.3s2.592 1.073 3.773 1.7l-7.088 16.576s-3.147.422-5.052.024Z" opacity=".7" style="fill:#ccc;fill:color(display-p3 .8 .8 .8);fill-opacity:1"/></g><path fill="#CECECE" stroke="#000" stroke-linecap="round" stroke-linejoin="round" stroke-width=".229" d="M61.996 28.588a.916.916 0 1 0 0-1.832.916.916 0 0 0 0 1.832Zm7.261 2.845a2.062 2.062 0 1 0-3.68-1.859 2.062 2.062 0 0 0 3.68 1.859Z" style="fill:#cecece;fill:color(display-p3 .8078 .8078 .8078);fill-opacity:1;stroke:#000;stroke-opacity:1"/><path fill="#fff" stroke="#000" stroke-linecap="round" stroke-linejoin="round" stroke-width=".241" d="M109.529 53.928a1.145 1.145 0 1 0-2.027-1.066 1.145 1.145 0 0 0 2.027 1.066Z" style="fill:#fff;fill-opacity:1;stroke:#000;stroke-opacity:1"/><path fill="#fff" stroke="#000" stroke-linecap="round" stroke-linejoin="round" stroke-width=".229" d="M70.73 32.382a1.085 1.085 0 1 0-1.922-1.009 1.085 1.085 0 0 0 1.921 1.009Z" style="fill:#fff;fill-opacity:1;stroke:#000;stroke-opacity:1"/><path fill="#1D1D1B" d="M81.602 38.703a.844.844 0 1 0-1.475-.821.844.844 0 0 0 1.475.82Z" style="fill:#1d1d1b;fill:color(display-p3 .1137 .1137 .1059);fill-opacity:1"/><path fill="#CECECE" stroke="#000" stroke-linecap="round" stroke-linejoin="round" stroke-width=".241" d="M46.758 37.193a.844.844 0 1 0-1.474-.821.844.844 0 0 0 1.474.82Z" style="fill:#cecece;fill:color(display-p3 .8078 .8078 .8078);fill-opacity:1;stroke:#000;stroke-opacity:1"/><path fill="#1D1D1B" d="M54.556 33.367A1.422 1.422 0 1 0 52.06 32a1.422 1.422 0 0 0 2.496 1.367Z" style="fill:#1d1d1b;fill:color(display-p3 .1137 .1137 .1059);fill-opacity:1"/><path fill="#CECECE" stroke="#000" stroke-linecap="round" stroke-linejoin="round" stroke-width=".241" d="M41.188 46.24a2.339 2.339 0 1 0-4.145-2.166 2.339 2.339 0 0 0 4.145 2.167Z" style="fill:#cecece;fill:color(display-p3 .8078 .8078 .8078);fill-opacity:1;stroke:#000;stroke-opacity:1"/><path fill="#01E656" stroke="#000" stroke-linecap="round" stroke-linejoin="round" stroke-width=".241" d="M45.203 46.669c0-11.164-9.054-20.218-20.217-20.218-11.164 0-20.217 9.042-20.217 20.218 0 11.175 9.053 20.217 20.217 20.217 11.163 0 20.217-9.054 20.217-20.217Z" style="fill:#01e656;fill:color(display-p3 .0039 .902 .3373);fill-opacity:1;stroke:#000;stroke-opacity:1"/><path fill="#fff" stroke="#000" stroke-miterlimit="10" stroke-width=".241" d="M29.062 45.778c-.88-.362-1.809-.519-2.737-.688-1.061-.193-2.17-.193-3.17-.699a.923.923 0 0 1-.47-1.025c.168-.687.65-1.072 1.277-1.253a4.39 4.39 0 0 1 2.134-.085c1.037.205 1.663.675 1.832 1.724.024.157.109.169.241.169h2.23c.218 0 .278-.084.242-.277-.06-.362-.097-1.869-1.543-3.002-.7-.543-1.52-.832-2.4-.953-.24-.036-.325-.108-.3-.35l.156-1.494s.133-.253-.603-.253c-.482 0-.964.024-1.459 0-.204 0-.265.06-.24.265.06.494.084.989.144 1.483.024.18 0 .29-.217.301-2.182.085-3.086 1.218-3.484 1.772-.494.7-.747 1.616-.784 2.038-.06.892.145 1.712.784 2.375.446.458 1 .76 1.615.952.832.253 3.52.64 4.545.82 1.242.229 1.628.7 1.35 1.688-.24.627-.723.964-1.338 1.145-.506.145-2.097.265-2.905 0-.723-.241-1.374-.639-1.507-1.483-.06-.361-.18-.506-.542-.458l-2.05.024c-.096 0-.169.085-.169.181.073.772.555 3.785 4.051 4.111.627.06.627.108.59.7-.035.373-.06.759-.108 1.133a.224.224 0 0 0 .241.265c.434-.012.868 0 1.302 0 .748 0 .76.06.7-.446l-.097-1.037c-.012-.47-.024-.53.386-.567.048 0 .832-.157.976-.193 1.773-.47 3.014-1.446 3.28-3.375.289-2.315-.929-3.11-1.978-3.545l.025.037Z" style="fill:#fff;fill-opacity:1;stroke:#000;stroke-opacity:1"/><path fill="#fff" stroke="#000" stroke-linecap="round" stroke-linejoin="round" stroke-width=".241" d="M13.618 46.693c0-7.487 6.22-13.55 13.9-13.55 7.68 0 4.81.638 6.824 1.747-.097-.277-.205-.542-.314-.82-1.17-2.965-3.93-5.183-7.185-5.183-10.078 0-18.252 7.968-18.252 17.806 0 9.837 8.174 17.806 18.252 17.806 10.079 0 6.016-2.206 7.185-5.184.109-.265.205-.542.314-.82a14.102 14.102 0 0 1-6.824 1.748c-7.68 0-13.9-6.064-13.9-13.55Z" style="fill:#fff;fill-opacity:1;stroke:#000;stroke-opacity:1"/><path fill="#fff" stroke="#000" stroke-linecap="round" stroke-linejoin="round" stroke-width=".241" d="M34.33 34.879a34.302 34.302 0 0 1 2.086 11.814c0 4.148-.736 8.126-2.086 11.815 4.22-2.327 7.077-6.74 7.077-11.815 0-5.075-2.845-9.487-7.077-11.814Z" style="fill:#fff;fill-opacity:1;stroke:#000;stroke-opacity:1"/><path fill="#008F2D" stroke="#000" stroke-linecap="round" stroke-miterlimit="10" stroke-width=".241" d="M39.621 53.397c.94.048 3.267-.567 4.316-2.23 1.097-1.736.723-3.99-.23-6.366-.952-2.375-3.314-5.087-3.314-5.087s-1.64-2.23-5.39-4.991c-3.749-2.76-6.521-4.003-6.521-4.003-2.46-1.29-9.03-3.52-12.297-1.724-3.472 1.917-2.532 5.377-2.532 5.377s1.049-1.073 2.038-1.784c1.711-1.23 2.604-1.603 2.604-1.603s3.484-.338 8.017 1.88c3.604 1.76 5.557 3.291 6.268 3.834.736.579 3.665 2.737 5.787 5.546 1.893 2.507 2.761 4.448 2.93 5.967 0 0-.048 1.266-.615 2.797-.519 1.41-1.061 2.387-1.061 2.387Zm-5.291 5.111s2.736 2.797 1.06 4.835c-2.098 2.555-9.416 1.157-12.2 0-7.92-3.316-12.273-7.547-12.273-7.547S4.66 49.479 5.504 45.15c.482-2.46 2.821-2.46 3.544-2.46 0 0-.53 2.327-.458 4.268.049 1.531 1.965 3.701 4.087 6.016 2.158 2.35 5.184 4.509 6.088 5.04.904.53 1.592 1.217 6.776 3.025 4.93 1.724 6.871.916 6.871.916s1.375-1.76 1.941-3.436l-.024-.012Z" style="fill:#008f2d;fill:color(display-p3 0 .5608 .1765);fill-opacity:1;stroke:#000;stroke-opacity:1"/><path stroke="url(#e)" stroke-miterlimit="10" stroke-width=".241" d="m35.645 70.152 29.102 16.781 34.527-20.12"/><path fill="#008F2D" stroke="#000" stroke-linecap="round" stroke-miterlimit="10" stroke-width=".241" d="M43.652 74.717a.675.675 0 1 0-1.211-.596.675.675 0 0 0 1.211.596Z" style="fill:#008f2d;fill:color(display-p3 0 .5608 .1765);fill-opacity:1;stroke:#000;stroke-opacity:1"/><path fill="#fff" stroke="#000" stroke-linecap="round" stroke-linejoin="round" stroke-width=".241" d="M55.684 81.68a.964.964 0 1 0-1.708-.897.964.964 0 0 0 1.708.896Z" style="fill:#fff;fill-opacity:1;stroke:#000;stroke-opacity:1"/><path fill="#01E656" stroke="#000" stroke-linecap="round" stroke-linejoin="round" stroke-width=".241" d="M100.356 68.149a1.857 1.857 0 1 0-3.289-1.726 1.857 1.857 0 0 0 3.289 1.726Zm-10.2 5.451a1.555 1.555 0 1 0-2.736-1.48 1.555 1.555 0 0 0 2.736 1.48Z" style="fill:#01e656;fill:color(display-p3 .0039 .902 .3373);fill-opacity:1;stroke:#000;stroke-opacity:1"/><path fill="#008F2D" stroke="#000" stroke-linecap="round" stroke-miterlimit="10" stroke-width=".241" d="M85.616 75.743a1.025 1.025 0 1 0-1.707-1.134 1.025 1.025 0 0 0 1.707 1.135ZM62.48 84.678c0 .977-.796 1.76-1.76 1.76a1.763 1.763 0 0 1-1.761-1.76c0-.976.796-1.76 1.76-1.76.977 0 1.76.796 1.76 1.76Z" style="fill:#008f2d;fill:color(display-p3 0 .5608 .1765);fill-opacity:1;stroke:#000;stroke-opacity:1"/><path fill="#01E656" stroke="#000" stroke-linecap="round" stroke-linejoin="round" stroke-width=".241" d="M38.745 71.558a1.893 1.893 0 1 0-3.278-1.892 1.893 1.893 0 0 0 3.278 1.892Zm6.987 4.532a1.326 1.326 0 1 0-2.14-1.566 1.326 1.326 0 0 0 2.14 1.566Z" style="fill:#01e656;fill:color(display-p3 .0039 .902 .3373);fill-opacity:1;stroke:#000;stroke-opacity:1"/><path fill="#fff" stroke="#000" stroke-linecap="round" stroke-linejoin="round" stroke-width=".241" d="M95.414 69.935a.964.964 0 1 0-1.708-.896.964.964 0 0 0 1.708.896Z" style="fill:#fff;fill-opacity:1;stroke:#000;stroke-opacity:1"/><path fill="#CECECE" stroke="#000" stroke-linecap="round" stroke-linejoin="round" stroke-width=".229" d="M87.586 41.943a2.061 2.061 0 1 0-3.68-1.86 2.061 2.061 0 0 0 3.68 1.86Z" style="fill:#cecece;fill:color(display-p3 .8078 .8078 .8078);fill-opacity:1;stroke:#000;stroke-opacity:1"/><defs><linearGradient id="a" x1="7.939" x2="42.864" y1="61.511" y2="61.511" gradientUnits="userSpaceOnUse"><stop stop-color="#F96963" style="stop-color:#f96963;stop-color:color(display-p3 .9765 .4118 .3882);stop-opacity:1"/><stop offset=".3" stop-color="#EE4783" style="stop-color:#ee4783;stop-color:color(display-p3 .9333 .2784 .5137);stop-opacity:1"/><stop offset=".4" stop-color="#EB3B90" style="stop-color:#eb3b90;stop-color:color(display-p3 .9216 .2314 .5647);stop-opacity:1"/><stop offset=".5" stop-color="#D23C96" style="stop-color:#d23c96;stop-color:color(display-p3 .8235 .2353 .5882);stop-opacity:1"/><stop offset=".8" stop-color="#933EA5" style="stop-color:#933ea5;stop-color:color(display-p3 .5765 .2431 .6471);stop-opacity:1"/><stop offset="1" stop-color="#5F41B2" style="stop-color:#5f41b2;stop-color:color(display-p3 .3725 .2549 .698);stop-opacity:1"/></linearGradient><linearGradient id="b" x1="89.916" x2="124.841" y1="25.004" y2="25.004" gradientUnits="userSpaceOnUse"><stop stop-color="#F96963" style="stop-color:#f96963;stop-color:color(display-p3 .9765 .4118 .3882);stop-opacity:1"/><stop offset=".3" stop-color="#EE4783" style="stop-color:#ee4783;stop-color:color(display-p3 .9333 .2784 .5137);stop-opacity:1"/><stop offset=".4" stop-color="#EB3B90" style="stop-color:#eb3b90;stop-color:color(display-p3 .9216 .2314 .5647);stop-opacity:1"/><stop offset=".5" stop-color="#D23C96" style="stop-color:#d23c96;stop-color:color(display-p3 .8235 .2353 .5882);stop-opacity:1"/><stop offset=".8" stop-color="#933EA5" style="stop-color:#933ea5;stop-color:color(display-p3 .5765 .2431 .6471);stop-opacity:1"/><stop offset="1" stop-color="#5F41B2" style="stop-color:#5f41b2;stop-color:color(display-p3 .3725 .2549 .698);stop-opacity:1"/></linearGradient><linearGradient id="c" x1="55.619" x2="76.873" y1="62.461" y2="62.461" gradientUnits="userSpaceOnUse"><stop stop-color="#F96963" style="stop-color:#f96963;stop-color:color(display-p3 .9765 .4118 .3882);stop-opacity:1"/><stop offset=".3" stop-color="#EE4783" style="stop-color:#ee4783;stop-color:color(display-p3 .9333 .2784 .5137);stop-opacity:1"/><stop offset=".4" stop-color="#EB3B90" style="stop-color:#eb3b90;stop-color:color(display-p3 .9216 .2314 .5647);stop-opacity:1"/><stop offset=".5" stop-color="#D23C96" style="stop-color:#d23c96;stop-color:color(display-p3 .8235 .2353 .5882);stop-opacity:1"/><stop offset=".8" stop-color="#933EA5" style="stop-color:#933ea5;stop-color:color(display-p3 .5765 .2431 .6471);stop-opacity:1"/><stop offset="1" stop-color="#5F41B2" style="stop-color:#5f41b2;stop-color:color(display-p3 .3725 .2549 .698);stop-opacity:1"/></linearGradient><linearGradient id="d" x1="27.975" x2="110.086" y1="41.234" y2="41.234" gradientUnits="userSpaceOnUse"><stop stop-color="#F96963" style="stop-color:#f96963;stop-color:color(display-p3 .9765 .4118 .3882);stop-opacity:1"/><stop offset=".3" stop-color="#EE4783" style="stop-color:#ee4783;stop-color:color(display-p3 .9333 .2784 .5137);stop-opacity:1"/><stop offset=".4" stop-color="#EB3B90" style="stop-color:#eb3b90;stop-color:color(display-p3 .9216 .2314 .5647);stop-opacity:1"/><stop offset=".5" stop-color="#D23C96" style="stop-color:#d23c96;stop-color:color(display-p3 .8235 .2353 .5882);stop-opacity:1"/><stop offset=".8" stop-color="#933EA5" style="stop-color:#933ea5;stop-color:color(display-p3 .5765 .2431 .6471);stop-opacity:1"/><stop offset="1" stop-color="#5F41B2" style="stop-color:#5f41b2;stop-color:color(display-p3 .3725 .2549 .698);stop-opacity:1"/></linearGradient><linearGradient id="e" x1="35.584" x2="99.334" y1="76.891" y2="76.891" gradientUnits="userSpaceOnUse"><stop stop-color="#F96963" style="stop-color:#f96963;stop-color:color(display-p3 .9765 .4118 .3882);stop-opacity:1"/><stop offset=".3" stop-color="#EE4783" style="stop-color:#ee4783;stop-color:color(display-p3 .9333 .2784 .5137);stop-opacity:1"/><stop offset=".4" stop-color="#EB3B90" style="stop-color:#eb3b90;stop-color:color(display-p3 .9216 .2314 .5647);stop-opacity:1"/><stop offset=".5" stop-color="#D23C96" style="stop-color:#d23c96;stop-color:color(display-p3 .8235 .2353 .5882);stop-opacity:1"/><stop offset=".8" stop-color="#933EA5" style="stop-color:#933ea5;stop-color:color(display-p3 .5765 .2431 .6471);stop-opacity:1"/><stop offset="1" stop-color="#5F41B2" style="stop-color:#5f41b2;stop-color:color(display-p3 .3725 .2549 .698);stop-opacity:1"/></linearGradient></defs></svg>