<svg xmlns="http://www.w3.org/2000/svg" width="129" height="128" fill="none"><mask id="b" width="129" height="128" x="0" y="0" maskUnits="userSpaceOnUse" style="mask-type:alpha"><path fill="url(#a)" d="M.333 0h128v128h-128z"/></mask><g stroke="#000" mask="url(#b)"><path fill="#01E656" stroke-linecap="round" stroke-linejoin="round" stroke-width=".329" d="M57.008 65.187a2.957 2.957 0 1 0 0-5.914 2.957 2.957 0 0 0 0 5.914Z" style="fill:#01e656;fill:color(display-p3 .0039 .902 .3373);fill-opacity:1;stroke:#000;stroke-opacity:1"/><path fill="url(#c)" stroke-miterlimit="10" stroke-width=".329" d="M97.533 27.357c-1.61 0-3.187.115-4.731.395-1.544.279-1.873 1.396-1.528 2.53.345 1.133.296 1.297.296 1.987a6.394 6.394 0 0 1-6.44 6.374c-3.564 0-3.614-.838-4.78-2.152-.854-.97-2.365-.953-3.236 0-4.288 4.73-6.982 10.924-7.113 17.642a27.97 27.97 0 0 0 .131 3.335 4.197 4.197 0 0 0 4.271 3.778c.23 0 .46 0 .69.017 3.089.246 5.57 2.743 5.783 5.831A6.305 6.305 0 0 1 79.66 71.3c-1.117 1.495-.821 3.614.624 4.78a27.201 27.201 0 0 0 16.887 5.947c14.982.082 27.335-12.074 27.483-27.056.148-15.145-12.025-27.482-27.105-27.597l-.016-.017Z" style="stroke:#000;stroke-opacity:1"/><path fill="#01E656" stroke-linecap="round" stroke-linejoin="round" stroke-width=".329" d="M56.53 49.846c-2.809.115-4.632-2.135-4.09-4.895.28-1.446 1.265-2.25 2.201-2.678.953-.443 1.298-1.626.805-2.546a26.888 26.888 0 0 0-.673-1.166c-.756-1.232-2.645-1.807-3.565-.707-2.973 3.565-3.236 1.594-5.175 1.479-3.975-.247-7.211-3.45-7.474-7.425a8.108 8.108 0 0 1 .41-3.17c.395-1.15-.262-2.4-1.461-2.678a28.116 28.116 0 0 0-6.801-.723c-6.177.115-11.893 2.365-16.476 6.012-.789.624-1.068 1.66-.756 2.628a3.932 3.932 0 0 1-1.593 4.468 1.024 1.024 0 0 0-.23 1.512 5.646 5.646 0 0 1 1.297 3.499c.05 2.76-1.954 5.19-4.665 5.667-.214.033-.427.066-.64.082.952.871 1.445 2.218 1.084 3.664-.345 1.429-1.561 2.497-3.023 2.727a.97.97 0 0 0-.23.032c-.92.083-1.56.92-1.413 1.84a27.444 27.444 0 0 0 2.694 8.115c.674 1.298 2.382 1.627 3.45.64a6.29 6.29 0 0 1 4.797-1.658c3.088.246 5.569 2.776 5.766 5.88a6.188 6.188 0 0 1-1.035 3.894c-.986 1.495-.395 3.515 1.265 4.172a27.34 27.34 0 0 0 10.07 1.955c5.568.033 10.743-1.56 15.08-4.353l.147-.099c1.314-.854 2.02-2.414 1.709-3.942-.313-1.528-.115-.838-.083-1.298.181-2.201 1.988-3.975 4.19-4.123 2.2-.148.558 0 .82.016 1.266.148 2.481-.476 3.04-1.61a27.479 27.479 0 0 0 2.792-12.024c0-.427 0-.838-.016-1.265-.05-1.133-1.018-1.988-2.168-1.922-1.15.066-.033 0-.05 0Z" style="fill:#01e656;fill:color(display-p3 .0039 .902 .3373);fill-opacity:1;stroke:#000;stroke-opacity:1"/><path fill="#01E656" stroke-linecap="round" stroke-linejoin="round" stroke-width=".329" d="M52.244 44.278a4.189 4.189 0 1 0 0-8.378 4.189 4.189 0 0 0 0 8.378Zm10.743 2.002a1.166 1.166 0 1 0 0-2.333 1.166 1.166 0 0 0 0 2.333Zm-2.775-12.302a1.692 1.692 0 1 0 0-3.384 1.692 1.692 0 0 0 0 3.384Z" style="fill:#01e656;fill:color(display-p3 .0039 .902 .3373);fill-opacity:1;stroke:#000;stroke-opacity:1"/><path fill="#01E656" stroke-miterlimit="10" stroke-width=".329" d="M20.67 69.132a3.702 3.702 0 0 0-3.696-3.697 3.702 3.702 0 0 0-3.696 3.697 3.702 3.702 0 0 0 3.696 3.696 3.702 3.702 0 0 0 3.697-3.696Z" style="fill:#01e656;fill:color(display-p3 .0039 .902 .3373);fill-opacity:1;stroke:#000;stroke-opacity:1"/><path fill="#fff" stroke-miterlimit="10" stroke-width=".329" d="M36.769 51.668c-1.2-.493-2.464-.707-3.73-.937-1.445-.263-2.956-.263-4.32-.953a1.257 1.257 0 0 1-.64-1.396c.23-.936.887-1.462 1.741-1.708.953-.28 1.89-.312 2.908-.115 1.412.28 2.267.92 2.497 2.349.032.213.147.23.328.23h3.04c.295 0 .377-.115.328-.378-.082-.493-.132-2.546-2.103-4.09-.953-.74-2.07-1.134-3.269-1.298-.328-.05-.444-.148-.41-.476l.213-2.037s.18-.345-.821-.345c-.658 0-1.315.032-1.988 0-.28 0-.361.082-.329.361.082.674.115 1.347.197 2.02.033.247 0 .395-.295.411-2.974.115-4.206 1.66-4.748 2.415-.673.953-1.018 2.201-1.067 2.776-.083 1.216.197 2.333 1.067 3.236.608.625 1.364 1.035 2.202 1.298 1.133.345 4.796.87 6.193 1.117 1.692.312 2.217.953 1.84 2.3-.33.854-.986 1.314-1.824 1.56-.69.198-2.858.362-3.959 0-.986-.328-1.873-.87-2.053-2.02-.082-.493-.247-.69-.74-.624l-2.792.033c-.132 0-.23.115-.23.246.098 1.051.756 5.158 5.52 5.602.854.082.854.148.804.952-.049.51-.082 1.035-.148 1.544a.306.306 0 0 0 .329.362c.591-.016 1.183 0 1.774 0 1.019 0 1.035.082.953-.608l-.132-1.413c-.016-.64-.032-.722.526-.772.066 0 1.134-.213 1.33-.263 2.416-.64 4.108-1.97 4.469-4.6.394-3.153-1.265-4.237-2.694-4.829l.033.05Z" style="fill:#fff;fill-opacity:1;stroke:#000;stroke-opacity:1"/><path fill="#008F2D" stroke-linecap="round" stroke-linejoin="round" stroke-width=".329" d="M60.802 50.764c0-1.117-.92-2.037-2.036-2.037-1.118 0-2.038.92-2.038 2.037s.92 2.036 2.038 2.036c1.117 0 2.036-.92 2.036-2.036Z" style="fill:#008f2d;fill:color(display-p3 0 .5608 .1765);fill-opacity:1;stroke:#000;stroke-opacity:1"/><path fill="#010101" stroke-miterlimit="10" stroke-width=".214" d="M66.832 32.875a3.32 3.32 0 0 0-3.318-3.318 3.32 3.32 0 0 0-3.319 3.318 3.32 3.32 0 0 0 3.319 3.318 3.32 3.32 0 0 0 3.318-3.318Z" style="fill:#010101;fill:color(display-p3 .0039 .0039 .0039);fill-opacity:1;stroke:#000;stroke-opacity:1"/><path fill="#fff" stroke-linecap="round" stroke-linejoin="round" stroke-width=".329" d="M43.947 36.82a47.465 47.465 0 0 1 2.431 9.906c.46 3.433.608 1.61 1.331 2.086a4.226 4.226 0 0 1 1.873 4.189 4.128 4.128 0 0 1-1.709 2.76c-.788.558-1.264 1.445-1.38 2.398a47.115 47.115 0 0 1-2.546 10.858c5.75-3.17 9.643-9.182 9.643-16.098 0-6.916-3.877-12.928-9.643-16.099Z" style="fill:#fff;fill-opacity:1;stroke:#000;stroke-opacity:1"/><path fill="#010101" stroke-miterlimit="10" stroke-width=".329" d="M74.322 44.295a3.155 3.155 0 1 1-6.31-.002 3.155 3.155 0 0 1 6.31.002Z" style="fill:#010101;fill:color(display-p3 .0039 .0039 .0039);fill-opacity:1;stroke:#000;stroke-opacity:1"/><path fill="#010101" stroke-miterlimit="10" stroke-width=".378" d="M70.46 55.972a3.55 3.55 0 0 1-4.599 2.038 3.55 3.55 0 0 1-2.037-4.6 3.55 3.55 0 0 1 4.6-2.037 3.55 3.55 0 0 1 2.037 4.6Z" style="fill:#010101;fill:color(display-p3 .0039 .0039 .0039);fill-opacity:1;stroke:#000;stroke-opacity:1"/><path fill="#010101" stroke-miterlimit="10" stroke-width=".329" d="M90.568 33.533a4.403 4.403 0 1 1-8.806 0 4.403 4.403 0 0 1 8.806 0Zm-14.835-1.248c0 .838-.673 1.528-1.528 1.528a1.515 1.515 0 0 1-1.527-1.528c0-.854.673-1.527 1.528-1.527.854 0 1.527.673 1.527 1.527Zm-4.22 32.756c0 .838-.674 1.528-1.528 1.528a1.514 1.514 0 0 1-1.528-1.528c0-.854.674-1.527 1.528-1.527s1.528.673 1.528 1.527Z" style="fill:#010101;fill:color(display-p3 .0039 .0039 .0039);fill-opacity:1;stroke:#000;stroke-opacity:1"/><path fill="#008F2D" stroke-linecap="round" stroke-miterlimit="10" stroke-width=".329" d="M25.829 26.141a1.795 1.795 0 0 0-1.676-1.889 1.795 1.795 0 0 0-1.889 1.676c-.05.985.69 1.823 1.676 1.889.985.05 1.823-.69 1.889-1.676ZM62.97 73.452a1.795 1.795 0 0 0-1.675-1.89 1.795 1.795 0 0 0-1.89 1.676 1.796 1.796 0 0 0 1.676 1.89 1.796 1.796 0 0 0 1.89-1.676Z" style="fill:#008f2d;fill:color(display-p3 0 .5608 .1765);fill-opacity:1;stroke:#000;stroke-opacity:1"/><path fill="#010101" stroke-miterlimit="10" stroke-width=".329" d="M79.21 62.292a2.546 2.546 0 1 0-4.738-1.866 2.546 2.546 0 0 0 4.738 1.866Z" style="fill:#010101;fill:color(display-p3 .0039 .0039 .0039);fill-opacity:1;stroke:#000;stroke-opacity:1"/><path fill="url(#d)" stroke-miterlimit="10" stroke-width=".329" d="M109.951 38.248a46.42 46.42 0 0 1 2.809 15.967 46.42 46.42 0 0 1-2.809 15.967c5.7-3.137 9.561-9.117 9.561-15.967s-3.861-12.813-9.561-15.967Z" style="stroke:#000;stroke-opacity:1"/><path fill="url(#e)" stroke-miterlimit="10" stroke-width=".329" d="M81.845 54.214c0-10.119 8.411-18.316 18.777-18.316 3.351 0 6.488.854 9.215 2.349-.131-.361-.279-.74-.427-1.1-1.577-4.009-5.306-6.999-9.725-6.999-7.096 0-13.487 2.924-17.987 7.606-.444.46-.625 1.1-.493 1.725.23 1.1.493 1.593.493 2.12 0 1.034-.313 1.691-1.495 2.283-.46.23-1.117.427-2.054.673-.936.246-1.412.788-1.692 1.544a23.371 23.371 0 0 0-1.445 8.115c0 6.587 2.71 12.567 7.113 16.904 1.15 1.133 2.858 1.445 4.353.854 1.495-.592 1.938-.493 2.973-.329 2.201.345 3.893 1.939 4.501 3.926.427 1.397 1.61 2.415 3.056 2.563.87.099 1.757.131 2.66.131 4.403 0 8.132-2.99 9.726-6.998.147-.361.279-.739.427-1.1a19.108 19.108 0 0 1-9.216 2.349c-10.365 0-18.776-8.197-18.776-18.316l.016.016Z" style="stroke:#000;stroke-opacity:1"/><path fill="#01E656" stroke-miterlimit="10" stroke-width=".329" d="M11.16 47.513a3.58 3.58 0 0 0-3.926-3.204 3.58 3.58 0 0 0-3.203 3.926 3.58 3.58 0 0 0 3.926 3.203 3.58 3.58 0 0 0 3.203-3.925Z" style="fill:#01e656;fill:color(display-p3 .0039 .902 .3373);fill-opacity:1;stroke:#000;stroke-opacity:1"/><path fill="#01E656" stroke-linecap="round" stroke-linejoin="round" stroke-width=".329" d="M55.645 73.928a2.544 2.544 0 1 0-5.06.527 2.544 2.544 0 0 0 5.06-.527Z" style="fill:#01e656;fill:color(display-p3 .0039 .902 .3373);fill-opacity:1;stroke:#000;stroke-opacity:1"/><path fill="#fff" stroke-linecap="round" stroke-linejoin="round" stroke-width=".329" d="M13.278 61.048a4.755 4.755 0 0 1 1.232-3.712c.888-.953 1.298-2.267 1.232-3.565 0-.279-.016-.558-.016-.854 0-10.201 8.476-18.464 18.94-18.464 10.465 0 6.538.854 9.298 2.366-.131-.378-.28-.74-.427-1.101-1.593-4.041-5.355-7.064-9.79-7.064-13.733 0-24.871 10.859-24.871 24.263 0 13.405.706 6.57 1.971 9.478.575 1.315 1.906 2.185 3.335 2.12 1.43-.066.361 0 .542 0 .214 0 .312-.247.148-.378a4.8 4.8 0 0 1-1.594-3.089Z" style="fill:#fff;fill-opacity:1;stroke:#000;stroke-opacity:1"/><path fill="#fff" stroke-linecap="round" stroke-linejoin="round" stroke-width=".329" d="M20.326 62.508a2.53 2.53 0 0 0-5.06 0 2.53 2.53 0 0 0 5.06 0Zm14.34 8.875c-3.712.28-7.08.542-10.004-1.265-.673-.41-1.018-.427-1.758-.164-.739.263-1.117-1.462-1.429-1.43a4.28 4.28 0 0 1-1.133-.065c.263.624.41 1.298.46 2.004.016.394 0 .772-.033 1.15a2.784 2.784 0 0 0 1.495 2.825c3.433 1.758 7.343 2.744 11.499 2.744 4.156 0 8.197-3.006 9.79-7.064.148-.361.28-.74.427-1.117-2.743 1.511-6.39 2.152-9.297 2.382h-.017Z" style="fill:#fff;fill-opacity:1;stroke:#000;stroke-opacity:1"/><path fill="#008F2D" stroke-linecap="round" stroke-miterlimit="10" stroke-width=".329" d="M44.49 69.638a.476.476 0 0 0-.82.115c-.74 1.741-1.923 3.384-2.268 3.828-.345.443-.148.147-.246.164-.657.18-3.417.723-9.2-1.298-7.063-2.464-8-3.4-9.231-4.123-1.232-.723-5.356-3.647-8.296-6.866-2.891-3.154-5.503-6.128-5.569-8.198-.065-1.954.312-4.188.51-5.223a.476.476 0 0 0-.493-.575h-.033a2.077 2.077 0 0 0-1.873 2.644c.132.427.197.887.197 1.364 0 .772-.18 1.511-.493 2.168a.762.762 0 0 0 .214.937c.427.36.706.887.706 1.494a1.9 1.9 0 0 1-.69 1.479.683.683 0 0 0-.164.838c2.218 3.778 5.306 6.899 5.306 6.899s5.93 5.75 16.723 10.283c3.795 1.594 13.782 3.483 16.624 0 1.725-2.086.033-4.763-.904-5.963v.033Z" style="fill:#008f2d;fill:color(display-p3 0 .5608 .1765);fill-opacity:1;stroke:#000;stroke-opacity:1"/><path fill="#fff" stroke-linecap="round" stroke-linejoin="round" stroke-width=".329" d="M50.567 30.756a2.53 2.53 0 0 0-5.06 0 2.53 2.53 0 0 0 5.06 0Z" style="fill:#fff;fill-opacity:1;stroke:#000;stroke-opacity:1"/><path fill="#008F2D" stroke-linecap="round" stroke-miterlimit="10" stroke-width=".329" d="M56.465 54.15h-.115c-1.462-.132-2.645-1.315-2.76-2.777a3.022 3.022 0 0 1 .838-2.332c.575-.592.69-1.725.164-2.497-1.215-1.774-2.398-3.138-2.398-3.138s-2.234-3.039-7.343-6.8c-5.109-3.762-8.887-5.454-8.887-5.454-1.692-.887-4.797-2.103-8.05-2.76a3.846 3.846 0 0 0-3.268.788 4.004 4.004 0 0 1-2.859.953 4.125 4.125 0 0 1-1.626-.443 2.348 2.348 0 0 0-2.71.41c-2.612 2.629-1.692 6.03-1.692 6.03s1.429-1.463 2.776-2.432c2.332-1.676 3.548-2.185 3.548-2.185s4.748-.46 10.924 2.563c4.912 2.398 7.573 4.484 8.542 5.224 1.002.788 4.994 3.729 7.885 7.556 2.58 3.417 3.762 6.062 3.992 8.131 0 0-.066 1.725-.838 3.811-.706 1.922-1.445 3.253-1.445 3.253 1.28.066 4.451-.772 5.88-3.039.625-.986.887-2.103.904-3.285.016-1.183-.657-1.528-1.478-1.561l.016-.016Z" style="fill:#008f2d;fill:color(display-p3 0 .5608 .1765);fill-opacity:1;stroke:#000;stroke-opacity:1"/><path fill="#fff" stroke-linecap="round" stroke-linejoin="round" stroke-width=".329" d="M52.556 48.598a2.53 2.53 0 0 0-5.06 0 2.53 2.53 0 0 0 5.06 0Z" style="fill:#fff;fill-opacity:1;stroke:#000;stroke-opacity:1"/><path fill="#010101" stroke-linecap="round" stroke-linejoin="round" stroke-width=".329" d="M82.98 68.061a3.579 3.579 0 0 0-3.548-3.614 3.602 3.602 0 0 0-2.71 1.2c-4.995 4.632-14.605 2.94-17.348 1.724-2.743-1.215-1.823-.476-1.823-.476-.986-.016-2.234.706-2.366 1.889-.131 1.166.723 2.201 1.89 2.365 1.166.165 1.938-.279 4.467-.788 5.717-1.133 12.288-.493 15.606.657.838.28 1.56.608 2.201.608a3.58 3.58 0 0 0 3.614-3.548l.017-.017Z" style="fill:#010101;fill:color(display-p3 .0039 .0039 .0039);fill-opacity:1;stroke:#000;stroke-opacity:1"/><path fill="url(#f)" stroke-linecap="round" stroke-linejoin="round" stroke-width=".329" d="M72.071 36.884a3.245 3.245 0 0 0-2.497.624c-.575.345-2.628 1.446-4.648 1.512-1.939.065-3.072 0-3.68-.378-.608-.378-.936-.559-1.183-.592a1.652 1.652 0 0 0-1.889 1.364 1.652 1.652 0 0 0 1.364 1.889c.262.05.706.033 1.28-.18.576-.214 2.333-.428 3.993-.28 2.513.214 4.32 1.495 4.32 1.495l.591.476c.444.362.707.46 1.314.559 1.791.28 3.483-.936 3.762-2.727.28-1.79-.936-3.483-2.727-3.762Z" style="stroke:#000;stroke-opacity:1"/><path fill="url(#g)" stroke-miterlimit="10" stroke-width=".329" d="M76.785 55.677a2.513 2.513 0 0 1-2.513 2.514 2.524 2.524 0 0 1-2.513-2.514 2.524 2.524 0 0 1 2.513-2.513 2.524 2.524 0 0 1 2.513 2.513Z" style="stroke:#000;stroke-opacity:1"/><path fill="url(#h)" stroke-miterlimit="10" stroke-width=".329" d="M91.192 74.111c0 1.084-.87 1.955-1.955 1.955a1.949 1.949 0 0 1-1.955-1.955 1.95 1.95 0 0 1 1.955-1.955 1.95 1.95 0 0 1 1.955 1.955Z" style="stroke:#000;stroke-opacity:1"/><path fill="url(#i)" stroke-miterlimit="10" stroke-width=".329" d="M73.894 76.46a3.856 3.856 0 0 1-3.86 3.86 3.856 3.856 0 0 1-3.861-3.86 3.856 3.856 0 0 1 3.86-3.86 3.856 3.856 0 0 1 3.86 3.86Z" style="stroke:#000;stroke-opacity:1"/><path fill="url(#j)" stroke-miterlimit="10" stroke-width=".329" d="M64.235 59.62c-.788.344-1.725 0-2.07-.806-.344-.788 0-1.724.805-2.07.789-.344 1.725 0 2.07.806.345.788 0 1.724-.805 2.07Z" style="stroke:#000;stroke-opacity:1"/></g><defs><radialGradient id="c" cx="0" cy="0" r="1" gradientTransform="translate(100.227 45.197) scale(41.659)" gradientUnits="userSpaceOnUse"><stop stop-color="#3E3E3E" style="stop-color:#3e3e3e;stop-color:color(display-p3 .2431 .2431 .2431);stop-opacity:1"/><stop offset=".1" stop-color="#3E3E3E" style="stop-color:#3e3e3e;stop-color:color(display-p3 .2431 .2431 .2431);stop-opacity:1"/><stop offset=".3" stop-color="#353535" style="stop-color:#353535;stop-color:color(display-p3 .2078 .2078 .2078);stop-opacity:1"/><stop offset=".4" stop-color="#1F1F1F" style="stop-color:#1f1f1f;stop-color:color(display-p3 .1216 .1216 .1216);stop-opacity:1"/><stop offset=".6" stop-color="#010101" style="stop-color:#010101;stop-color:color(display-p3 .0039 .0039 .0039);stop-opacity:1"/><stop offset=".7" stop-color="#040404" style="stop-color:#040404;stop-color:color(display-p3 .0157 .0157 .0157);stop-opacity:1"/><stop offset=".8" stop-color="#0E0E0E" style="stop-color:#0e0e0e;stop-color:color(display-p3 .0549 .0549 .0549);stop-opacity:1"/><stop offset=".9" stop-color="#202020" style="stop-color:#202020;stop-color:color(display-p3 .1255 .1255 .1255);stop-opacity:1"/><stop offset="1" stop-color="#3E3E3E" style="stop-color:#3e3e3e;stop-color:color(display-p3 .2431 .2431 .2431);stop-opacity:1"/></radialGradient><radialGradient id="d" cx="0" cy="0" r="1" gradientTransform="translate(114.715 54.215) scale(11.7782)" gradientUnits="userSpaceOnUse"><stop stop-color="#FCF3FF" style="stop-color:#fcf3ff;stop-color:color(display-p3 .9882 .9529 1);stop-opacity:1"/><stop offset=".3" stop-color="#FAECFF" style="stop-color:#faecff;stop-color:color(display-p3 .9804 .9255 1);stop-opacity:1"/><stop offset=".6" stop-color="#F5D9FF" style="stop-color:#f5d9ff;stop-color:color(display-p3 .9608 .851 1);stop-opacity:1"/><stop offset=".9" stop-color="#F0C3FF" style="stop-color:#f0c3ff;stop-color:color(display-p3 .9412 .7647 1);stop-opacity:1"/><stop offset="1" stop-color="#F0C3FF" style="stop-color:#f0c3ff;stop-color:color(display-p3 .9412 .7647 1);stop-opacity:1"/></radialGradient><radialGradient id="e" cx="0" cy="0" r="1" gradientTransform="translate(92.44 54.214) scale(21.0102)" gradientUnits="userSpaceOnUse"><stop stop-color="#FCF3FF" style="stop-color:#fcf3ff;stop-color:color(display-p3 .9882 .9529 1);stop-opacity:1"/><stop offset=".3" stop-color="#FAECFF" style="stop-color:#faecff;stop-color:color(display-p3 .9804 .9255 1);stop-opacity:1"/><stop offset=".6" stop-color="#F5D9FF" style="stop-color:#f5d9ff;stop-color:color(display-p3 .9608 .851 1);stop-opacity:1"/><stop offset=".9" stop-color="#F0C3FF" style="stop-color:#f0c3ff;stop-color:color(display-p3 .9412 .7647 1);stop-opacity:1"/><stop offset="1" stop-color="#F0C3FF" style="stop-color:#f0c3ff;stop-color:color(display-p3 .9412 .7647 1);stop-opacity:1"/></radialGradient><radialGradient id="g" cx="0" cy="0" r="1" gradientTransform="translate(67.936 54.634) scale(2.45749)" gradientUnits="userSpaceOnUse"><stop stop-color="#FCF3FF" style="stop-color:#fcf3ff;stop-color:color(display-p3 .9882 .9529 1);stop-opacity:1"/><stop offset=".3" stop-color="#FAECFF" style="stop-color:#faecff;stop-color:color(display-p3 .9804 .9255 1);stop-opacity:1"/><stop offset=".6" stop-color="#F5D9FF" style="stop-color:#f5d9ff;stop-color:color(display-p3 .9608 .851 1);stop-opacity:1"/><stop offset=".9" stop-color="#F0C3FF" style="stop-color:#f0c3ff;stop-color:color(display-p3 .9412 .7647 1);stop-opacity:1"/><stop offset="1" stop-color="#F0C3FF" style="stop-color:#f0c3ff;stop-color:color(display-p3 .9412 .7647 1);stop-opacity:1"/></radialGradient><radialGradient id="h" cx="0" cy="0" r="1" gradientTransform="translate(82.152 71.957) scale(1.87926)" gradientUnits="userSpaceOnUse"><stop stop-color="#FCF3FF" style="stop-color:#fcf3ff;stop-color:color(display-p3 .9882 .9529 1);stop-opacity:1"/><stop offset=".3" stop-color="#FAECFF" style="stop-color:#faecff;stop-color:color(display-p3 .9804 .9255 1);stop-opacity:1"/><stop offset=".6" stop-color="#F5D9FF" style="stop-color:#f5d9ff;stop-color:color(display-p3 .9608 .851 1);stop-opacity:1"/><stop offset=".9" stop-color="#F0C3FF" style="stop-color:#f0c3ff;stop-color:color(display-p3 .9412 .7647 1);stop-opacity:1"/><stop offset="1" stop-color="#F0C3FF" style="stop-color:#f0c3ff;stop-color:color(display-p3 .9412 .7647 1);stop-opacity:1"/></radialGradient><radialGradient id="i" cx="0" cy="0" r="1" gradientTransform="translate(78.294 77.819) scale(3.90307)" gradientUnits="userSpaceOnUse"><stop stop-color="#FCF3FF" style="stop-color:#fcf3ff;stop-color:color(display-p3 .9882 .9529 1);stop-opacity:1"/><stop offset=".3" stop-color="#FAECFF" style="stop-color:#faecff;stop-color:color(display-p3 .9804 .9255 1);stop-opacity:1"/><stop offset=".6" stop-color="#F5D9FF" style="stop-color:#f5d9ff;stop-color:color(display-p3 .9608 .851 1);stop-opacity:1"/><stop offset=".9" stop-color="#F0C3FF" style="stop-color:#f0c3ff;stop-color:color(display-p3 .9412 .7647 1);stop-opacity:1"/><stop offset="1" stop-color="#F0C3FF" style="stop-color:#f0c3ff;stop-color:color(display-p3 .9412 .7647 1);stop-opacity:1"/></radialGradient><radialGradient id="j" cx="0" cy="0" r="1" gradientTransform="rotate(66.1 -17.388 78.778) scale(1.59014)" gradientUnits="userSpaceOnUse"><stop stop-color="#FCF3FF" style="stop-color:#fcf3ff;stop-color:color(display-p3 .9882 .9529 1);stop-opacity:1"/><stop offset=".3" stop-color="#FAECFF" style="stop-color:#faecff;stop-color:color(display-p3 .9804 .9255 1);stop-opacity:1"/><stop offset=".6" stop-color="#F5D9FF" style="stop-color:#f5d9ff;stop-color:color(display-p3 .9608 .851 1);stop-opacity:1"/><stop offset=".9" stop-color="#F0C3FF" style="stop-color:#f0c3ff;stop-color:color(display-p3 .9412 .7647 1);stop-opacity:1"/><stop offset="1" stop-color="#F0C3FF" style="stop-color:#f0c3ff;stop-color:color(display-p3 .9412 .7647 1);stop-opacity:1"/></radialGradient><linearGradient id="a" x1="64.333" x2="64.333" y1="64" y2="115.296" gradientUnits="userSpaceOnUse"><stop stop-color="#D9D9D9" style="stop-color:#d9d9d9;stop-color:color(display-p3 .851 .851 .851);stop-opacity:1"/><stop offset=".897" stop-color="#737373" stop-opacity="0" style="stop-color:none;stop-opacity:0"/></linearGradient><linearGradient id="f" x1="58.158" x2="74.847" y1="40.12" y2="40.12" gradientUnits="userSpaceOnUse"><stop stop-color="#F0C3FF" style="stop-color:#f0c3ff;stop-color:color(display-p3 .9412 .7647 1);stop-opacity:1"/><stop offset="1" stop-color="#F0C3FF" style="stop-color:#f0c3ff;stop-color:color(display-p3 .9412 .7647 1);stop-opacity:1"/></linearGradient></defs></svg>