<svg xmlns="http://www.w3.org/2000/svg" width="25" height="25" fill="none"><g clip-path="url(#a)"><path fill="#002868" d="M12.14 24.27c-6.6 0-12-5.4-12-12s5.4-12 12-12 12 5.4 12 12-5.4 12-12 12Z"/><path fill="#fff" d="M18.188 19.47H6.092a1.155 1.155 0 0 1-1.152-1.152V6.222c0-.634.519-1.152 1.152-1.152h12.096c.634 0 1.152.518 1.152 1.152v12.096c0 .633-.518 1.152-1.152 1.152Z"/><path fill="#002868" d="M7.75 18.02c-.038 0-.068-.035-.068-.073v-1.934c0-.038-.031-.073-.07-.073H6.93c-.038 0-.073-.03-.073-.069v-.373c0-.038.035-.073.073-.073h2.102c.038 0 .073.034.073.072v.374c0 .038-.035.07-.073.07h-.679a.075.075 0 0 0-.072.072v1.934c0 .038-.031.073-.069.073H7.75Zm3.453-2.522c0-.038.031-.073.069-.073h.458c.038 0 .072.034.072.072v1.321c0 .782-.442 1.236-1.144 1.236-.699 0-1.137-.454-1.137-1.236v-1.32c0-.038.03-.073.068-.073h.458c.038 0 .072.034.072.072v1.34c0 .385.199.66.543.66.343 0 .541-.275.541-.66v-1.34Zm2.702.774c-.061 0-.08-.023-.103-.068-.08-.188-.256-.306-.523-.306-.24 0-.443.084-.443.245 0 .175.188.248.6.297.625.073.984.264.984.76 0 .557-.489.85-1.114.85-.542 0-1.008-.263-1.08-.816-.008-.053.02-.072.072-.072h.42c.054 0 .084.023.1.065.057.183.252.324.534.324.248 0 .466-.092.466-.286 0-.233-.23-.275-.687-.332-.527-.069-.893-.222-.893-.706 0-.485.416-.832 1.068-.832.588 0 .996.317 1.08.79.012.053-.003.088-.06.088h-.421Zm1.034 1.748c-.038 0-.069-.035-.069-.073v-2.45c0-.037.03-.072.069-.072h1.037c.771 0 1.37.53 1.37 1.305 0 .763-.59 1.29-1.37 1.29H14.94Zm1.037-.516c.417 0 .74-.328.74-.782s-.324-.782-.743-.782h-.431c-.038 0-.069.034-.069.072v1.423c0 .038.03.069.069.069h.434Zm2.981-3.506H5.325a.193.193 0 0 1-.192-.192V6.22c0-.528.432-.96.96-.96h12.096c.528 0 .96.432.96.96v7.585a.193.193 0 0 1-.192.192Z"/><path fill="#fff" d="M12.848 12.44H11.6a.144.144 0 0 1-.144-.144v-5.28c0-.079.065-.144.144-.144h1.248c.08 0 .144.065.144.144v5.28c0 .08-.065.144-.144.144Z"/><path fill="#fff" d="M14.973 8.408H9.309a.144.144 0 0 1-.144-.144V7.016c0-.079.065-.144.144-.144h5.664c.08 0 .144.065.144.144v1.248c0 .08-.065.144-.144.144Z"/></g><defs><clipPath id="a"><path fill="#fff" d="M.14.27h24v24h-24z"/></clipPath></defs></svg>